<svg xmlns="http://www.w3.org/2000/svg" width="718" height="559.609" viewBox="0 0 718 559.609">
  <g id="Composant_72_1" data-name="Composant 72 – 1" transform="translate(1)">
    <text id="Salut_Moi_c_est_Brice" data-name="Salut,
Moi c&apos;est Brice" fill="#e50e42" font-size="62" font-family="HammersmithOne-Regular, Hammersmith One"><tspan fill="#000"><tspan x="0" y="56">Salut,</tspan></tspan><tspan x="0" y="132" fill="#000">Moi c&apos;est</tspan><tspan y="132" fill="#4a4197"> </tspan><tspan y="132" fill="#e50e42">Brice</tspan></text>
    <g id="Composant_60_4" data-name="Composant 60 – 4" transform="translate(0 178.609)">
      <g id="Composant_59_1" data-name="Composant 59 – 1">
        <text id="Je_suis_designer_graphique_Je_mets_à_disposition_ma_créativité_pour_créer_votre_logo_design_et_conception_d_interface_identité_graphique_" data-name="Je suis designer graphique 
Je mets à disposition ma créativité pour créer votre
   logo
   design et conception d&apos;interface
   identité graphique
" font-size="30" font-family="HammersmithOne-Regular, Hammersmith One"><tspan x="0" y="27">Je suis designer graphique </tspan><tspan x="0" y="80">Je mets à disposition ma créativité pour créer </tspan><tspan x="0" y="133">votre</tspan><tspan x="0" y="186" xml:space="preserve">   logo</tspan><tspan x="0" y="239" xml:space="preserve">   design et conception d&apos;interface</tspan><tspan x="0" y="292" xml:space="preserve">   identité graphique</tspan><tspan font-family="HammersmithOne-Regular"><tspan x="0" y="345"></tspan></tspan></text>
      </g>
      <path id="Tracé_349" data-name="Tracé 349" d="M3277.109-1145.855a32.68,32.68,0,0,1,3.278-4.478l4.221,3.44q-.845,1.078-1.571,2.116l-1.512,2.219Z" transform="translate(-3265.001 1432.375)" fill="#e50e42"/>
      <path id="Tracé_350" data-name="Tracé 350" d="M3277.109-1145.855a32.68,32.68,0,0,1,3.278-4.478l4.221,3.44q-.845,1.078-1.571,2.116l-1.512,2.219Z" transform="translate(-3265.001 1324.592)" fill="#e50e42"/>
      <path id="Tracé_351" data-name="Tracé 351" d="M3277.109-1145.855a32.68,32.68,0,0,1,3.278-4.478l4.221,3.44q-.845,1.078-1.571,2.116l-1.512,2.219Z" transform="translate(-3265.001 1378.484)" fill="#e50e42"/>
    </g>
  </g>
</svg>
