<svg xmlns="http://www.w3.org/2000/svg" width="33.799" height="33.799" viewBox="0 0 33.799 33.799"><path d="M15.453,11.191a1.69,1.69,0,0,0-1.69,1.842h3.481a1.69,1.69,0,0,0-1.791-1.842Z" transform="translate(6.111 4.34)"/><path d="M10.339,12.3H8.26v3.278H9.95c1.69,0,2.434-.558,2.434-1.69S11.606,12.3,10.339,12.3Z" transform="translate(2.319 5.106)"/><path d="M11.809,11.106c0-.9-.591-1.436-1.605-1.436H8.26v2.94H9.7c1.5,0,2.112-.541,2.112-1.5Z" transform="translate(2.319 3.292)"/><path d="M18.9,2A16.9,16.9,0,1,0,35.8,18.9,16.9,16.9,0,0,0,18.9,2ZM15.012,24.307H10.45V13.323h4.563c1.977,0,3.278,1.031,3.278,2.7A2.366,2.366,0,0,1,16.4,18.443a2.569,2.569,0,0,1,2.5,2.771C18.9,23.175,17.209,24.307,15.012,24.307Zm6-10.14h5.07v.845h-5.07Zm6.337,6.506H21.772v.237a1.808,1.808,0,0,0,1.842,2.011,1.521,1.521,0,0,0,1.69-1.065h2.045a3.38,3.38,0,0,1-3.667,2.619,3.633,3.633,0,0,1-3.988-3.887v-.744a3.566,3.566,0,0,1,3.853-3.8,3.583,3.583,0,0,1,3.8,3.836Z" transform="translate(-2 -2)"/></svg>