<svg xmlns="http://www.w3.org/2000/svg" width="1166.532" height="341.299" viewBox="0 0 1166.532 341.299">
  <g id="BriceLogo" transform="translate(-0.01)">
    <path id="Tracé_788" data-name="Tracé 788" d="M296.728,651.684H263.711a24.51,24.51,0,0,1-24.491-24.491v-97.3a24.51,24.51,0,0,1,24.491-24.51h33.017q54.789,0,80.425,16.683t25.617,53.487Q402.771,651.684,296.728,651.684Z" transform="translate(-239.21 -310.541)" fill="#e50e42"/>
    <path id="Tracé_789" data-name="Tracé 789" d="M296.728,551.364H263.711a24.491,24.491,0,0,1-24.491-24.491V429.551a24.491,24.491,0,0,1,24.491-24.491h33.017q54.789,0,80.425,16.683t25.617,53.468Q402.771,551.4,296.728,551.364Z" transform="translate(-239.21 -405.06)" fill="#141a68"/>
    <path id="Tracé_790" data-name="Tracé 790" d="M433.694,550.556H406.329c-16.528,0-29.929-10.76-29.929-24.005V429.345c0-13.246,13.4-24.005,29.929-24.005h27.365q54.595,0,80.154,16.567t25.5,53.06Q539.348,550.576,433.694,550.556Z" transform="translate(-109.963 -404.796)" fill="#e50e42"/>
    <path id="Tracé_791" data-name="Tracé 791" d="M406.31,651.077h99.42c23.015,0,37.426-20.354,25.967-36.668q-33.017-47.195-66.034-94.37c-5.05-7.186-14.178-11.808-24.3-12.275l-33.328-1.534c-17.169-.8-31.619,10.371-31.619,24.452v95.9C376.381,640.1,389.782,651.077,406.31,651.077Z" transform="translate(-109.944 -309.779)" fill="#141a68"/>
    <path id="Tracé_792" data-name="Tracé 792" d="M781.455,463.749a33.5,33.5,0,0,0-4.894-18.159c-16.605-25.151-38.067-40.32-61.528-40.32-52.633,0-95.3,76.308-95.3,170.445s42.728,170.445,95.3,170.445c23.462,0,44.923-15.188,61.528-40.32a33.542,33.542,0,0,0,4.894-18.159Z" transform="translate(119.297 -404.862)" fill="#e50e42"/>
    <rect id="Rectangle_632" data-name="Rectangle 632" width="102.877" height="340.89" rx="12.62" transform="translate(533.215 0.408)" fill="#141a68"/>
    <path id="Tracé_793" data-name="Tracé 793" d="M755.942,429.881v68.578a24.044,24.044,0,0,0,23.617,24.491h82.659a24.063,24.063,0,0,1,23.617,24.51V574.4a24.064,24.064,0,0,1-23.617,24.452H779.559a24.044,24.044,0,0,0-23.617,24.491v97.866A24.044,24.044,0,0,0,779.559,745.7H895.293a24.064,24.064,0,0,0,23.617-24.491V429.881a24.083,24.083,0,0,0-23.617-24.491H779.559A24.063,24.063,0,0,0,755.942,429.881Z" transform="translate(247.628 -404.749)" fill="#141a68"/>
  </g>
</svg>
