<svg id="Composant_86_3" data-name="Composant 86 – 3" xmlns="http://www.w3.org/2000/svg" xmlns:xlink="http://www.w3.org/1999/xlink" width="265.004" height="113.261" viewBox="0 0 265.004 113.261">
  <defs>
    <clipPath id="clip-path">
      <rect id="Rectangle_512" data-name="Rectangle 512" width="265.004" height="113.261" fill="none"/>
    </clipPath>
  </defs>
  <g id="Groupe_454" data-name="Groupe 454">
    <g id="Groupe_453" data-name="Groupe 453" clip-path="url(#clip-path)">
      <path id="Tracé_437" data-name="Tracé 437" d="M13.051,174.992H5.557A5.557,5.557,0,0,1,0,169.434V147.35a5.557,5.557,0,0,1,5.557-5.557h7.494q12.436,0,18.252,3.785t5.811,12.134q0,17.283-24.063,17.28" transform="translate(0 -97.585)" fill="#e50e42"/>
      <path id="Tracé_438" data-name="Tracé 438" d="M13.051,33.2H5.557A5.557,5.557,0,0,1,0,27.64V5.556A5.557,5.557,0,0,1,5.557,0h7.494Q25.486,0,31.3,3.784t5.811,12.134q0,17.283-24.063,17.28" transform="translate(0 0.001)" fill="#141a68"/>
      <path id="Tracé_439" data-name="Tracé 439" d="M206.9,33.351h-6.21c-3.751,0-6.792-2.438-6.792-5.447V5.852c0-3.008,3.041-5.447,6.792-5.447h6.21q12.39,0,18.185,3.756T230.878,16.2q0,17.151-23.974,17.148" transform="translate(-133.448 -0.279)" fill="#e50e42"/>
      <path id="Tracé_440" data-name="Tracé 440" d="M200.7,175.816h22.569c5.22,0,8.489-4.617,5.893-8.322l-15-21.411a7.1,7.1,0,0,0-5.509-2.784l-7.565-.35c-3.9-.18-7.176,2.356-7.176,5.548v21.761c0,3.069,3.041,5.557,6.792,5.557" transform="translate(-133.449 -98.375)" fill="#141a68"/>
      <path id="Tracé_441" data-name="Tracé 441" d="M574.493,13.565a7.627,7.627,0,0,0-1.112-4.121C569.614,3.74,564.743.3,559.42.3,547.476.3,537.794,17.61,537.794,38.97s9.682,38.675,21.626,38.675c5.323,0,10.194-3.445,13.961-9.149a7.627,7.627,0,0,0,1.112-4.121Z" transform="translate(-370.122 -0.203)" fill="#e50e42"/>
    </g>
  </g>
  <path id="Tracé_786" data-name="Tracé 786" d="M1.716,0a.59.59,0,0,1-.435-.15.59.59,0,0,1-.15-.436V-8.58a.59.59,0,0,1,.15-.436.59.59,0,0,1,.435-.149H4.225a4.734,4.734,0,0,1,3.432,1.17A4.525,4.525,0,0,1,8.866-4.589a5.821,5.821,0,0,1-.306,1.97,3.744,3.744,0,0,1-.9,1.437A3.869,3.869,0,0,1,6.2-.3,6,6,0,0,1,4.225,0ZM2.2-.91h1.95a4.794,4.794,0,0,0,1.58-.234,2.872,2.872,0,0,0,1.118-.689,2.826,2.826,0,0,0,.669-1.151,5.306,5.306,0,0,0,.221-1.605,3.785,3.785,0,0,0-.9-2.75,3.607,3.607,0,0,0-2.691-.917H2.2ZM11.4,0a.59.59,0,0,1-.435-.15.59.59,0,0,1-.149-.436V-8.58a.59.59,0,0,1,.149-.436.59.59,0,0,1,.435-.149h4.836a.458.458,0,0,1,.338.117.439.439,0,0,1,.117.325.458.458,0,0,1-.117.338.458.458,0,0,1-.338.117H11.856V-5.1h4.108a.474.474,0,0,1,.338.11.435.435,0,0,1,.117.332.458.458,0,0,1-.117.338.458.458,0,0,1-.338.117H11.856V-.9h4.381a.458.458,0,0,1,.338.117.439.439,0,0,1,.117.325.458.458,0,0,1-.117.338A.458.458,0,0,1,16.237,0Zm9.867.117a6.82,6.82,0,0,1-1.2-.1,5.763,5.763,0,0,1-1.086-.3,3.857,3.857,0,0,1-.9-.494.618.618,0,0,1-.215-.267.508.508,0,0,1-.026-.3.526.526,0,0,1,.13-.253.364.364,0,0,1,.241-.117.512.512,0,0,1,.312.091,4.057,4.057,0,0,0,1.248.6,5.468,5.468,0,0,0,1.5.189A2.834,2.834,0,0,0,23-1.268a1.382,1.382,0,0,0,.566-1.15,1.114,1.114,0,0,0-.41-.917,3.275,3.275,0,0,0-1.372-.527l-1.352-.273a3.65,3.65,0,0,1-1.826-.852,2.109,2.109,0,0,1-.6-1.579,2.477,2.477,0,0,1,.247-1.112,2.536,2.536,0,0,1,.689-.858,3.2,3.2,0,0,1,1.053-.553,4.43,4.43,0,0,1,1.352-.195,4.969,4.969,0,0,1,1.528.228,4.006,4.006,0,0,1,1.28.682.6.6,0,0,1,.2.267.465.465,0,0,1,.013.286.487.487,0,0,1-.137.227.4.4,0,0,1-.247.1.537.537,0,0,1-.331-.1,3.589,3.589,0,0,0-1.079-.566,4.109,4.109,0,0,0-1.235-.175,3.09,3.09,0,0,0-1.189.208,1.746,1.746,0,0,0-.78.6,1.551,1.551,0,0,0-.28.917,1.3,1.3,0,0,0,.384.988,2.511,2.511,0,0,0,1.254.533l1.352.286a4.257,4.257,0,0,1,1.944.826,1.894,1.894,0,0,1,.63,1.5,2.375,2.375,0,0,1-.234,1.053,2.331,2.331,0,0,1-.676.826,3.147,3.147,0,0,1-1.066.527A5.012,5.012,0,0,1,21.268.117Zm5.6-.026a.51.51,0,0,1-.4-.15.584.584,0,0,1-.136-.41V-8.7a.58.58,0,0,1,.136-.416.523.523,0,0,1,.4-.143.523.523,0,0,1,.4.143A.58.58,0,0,1,27.4-8.7V-.468a.6.6,0,0,1-.13.41A.506.506,0,0,1,26.871.091ZM33.9.117a5.043,5.043,0,0,1-2.477-.559A3.642,3.642,0,0,1,29.9-2.054a5.644,5.644,0,0,1-.52-2.522,6.147,6.147,0,0,1,.293-1.963,3.981,3.981,0,0,1,.858-1.476,3.85,3.85,0,0,1,1.378-.936,4.833,4.833,0,0,1,1.839-.332,5.548,5.548,0,0,1,1.586.228,3.828,3.828,0,0,1,1.365.721.5.5,0,0,1,.2.26.5.5,0,0,1-.007.286.584.584,0,0,1-.143.241.384.384,0,0,1-.247.11.473.473,0,0,1-.306-.091,3.583,3.583,0,0,0-1.131-.6,4.4,4.4,0,0,0-1.326-.189,3.311,3.311,0,0,0-1.761.442A2.77,2.77,0,0,0,30.882-6.6a4.973,4.973,0,0,0-.371,2.028,4.07,4.07,0,0,0,.851,2.782,3.251,3.251,0,0,0,2.567.962,6.026,6.026,0,0,0,1.222-.123A6.242,6.242,0,0,0,36.283-1.3l-.234.611V-3.926H34.19a.477.477,0,0,1-.351-.117.422.422,0,0,1-.117-.312.4.4,0,0,1,.117-.312.515.515,0,0,1,.351-.1h2.327a.458.458,0,0,1,.338.117.458.458,0,0,1,.117.338V-.923a.724.724,0,0,1-.065.325.412.412,0,0,1-.221.2,7.225,7.225,0,0,1-1.306.371A7.644,7.644,0,0,1,33.9.117ZM39.7.091a.5.5,0,0,1-.377-.137.553.553,0,0,1-.13-.4V-8.71a.578.578,0,0,1,.13-.4.436.436,0,0,1,.338-.143.521.521,0,0,1,.306.071,1.148,1.148,0,0,1,.228.253l5.668,7.553h-.312V-8.736a.534.534,0,0,1,.13-.384.5.5,0,0,1,.377-.136.457.457,0,0,1,.358.136.551.551,0,0,1,.123.384V-.429a.594.594,0,0,1-.11.383.386.386,0,0,1-.319.137A.554.554,0,0,1,45.8.013a1.1,1.1,0,0,1-.247-.247L39.9-7.787h.3V-.442a.553.553,0,0,1-.13.4A.479.479,0,0,1,39.7.091ZM49.439,0A.59.59,0,0,1,49-.15a.59.59,0,0,1-.149-.436V-8.58A.59.59,0,0,1,49-9.016a.59.59,0,0,1,.436-.149h4.836a.458.458,0,0,1,.338.117.439.439,0,0,1,.117.325.458.458,0,0,1-.117.338.458.458,0,0,1-.338.117H49.894V-5.1H54a.474.474,0,0,1,.338.11.435.435,0,0,1,.117.332.458.458,0,0,1-.117.338A.458.458,0,0,1,54-4.2H49.894V-.9h4.381a.458.458,0,0,1,.338.117.439.439,0,0,1,.117.325.458.458,0,0,1-.117.338A.458.458,0,0,1,54.275,0Zm7.566.091a.51.51,0,0,1-.4-.15.584.584,0,0,1-.137-.41V-8.619a.541.541,0,0,1,.143-.41.56.56,0,0,1,.4-.137H60.1a3.346,3.346,0,0,1,2.262.689,2.46,2.46,0,0,1,.793,1.963,2.65,2.65,0,0,1-.357,1.4,2.247,2.247,0,0,1-1.047.9,4.054,4.054,0,0,1-1.651.305l.13-.169h.26a1.518,1.518,0,0,1,.884.26,2.355,2.355,0,0,1,.689.832L63.31-.663a.666.666,0,0,1,.1.358.4.4,0,0,1-.124.286.474.474,0,0,1-.338.111.6.6,0,0,1-.364-.1.863.863,0,0,1-.247-.3L60.918-2.938a1.648,1.648,0,0,0-.689-.747A2.376,2.376,0,0,0,59.2-3.874H57.538V-.468a.6.6,0,0,1-.13.41A.506.506,0,0,1,57.005.091Zm.533-4.81h2.405a2.491,2.491,0,0,0,1.612-.449A1.64,1.64,0,0,0,62.1-6.513a1.609,1.609,0,0,0-.546-1.319,2.491,2.491,0,0,0-1.612-.448H57.538ZM72.787.117a5.043,5.043,0,0,1-2.477-.559,3.642,3.642,0,0,1-1.527-1.612,5.644,5.644,0,0,1-.52-2.522,6.147,6.147,0,0,1,.293-1.963,3.981,3.981,0,0,1,.858-1.476,3.85,3.85,0,0,1,1.378-.936,4.833,4.833,0,0,1,1.84-.332,5.548,5.548,0,0,1,1.586.228,3.828,3.828,0,0,1,1.365.721.5.5,0,0,1,.195.26.5.5,0,0,1-.007.286.584.584,0,0,1-.143.241.384.384,0,0,1-.247.11.473.473,0,0,1-.305-.091,3.583,3.583,0,0,0-1.131-.6,4.4,4.4,0,0,0-1.326-.189,3.311,3.311,0,0,0-1.762.442A2.77,2.77,0,0,0,69.765-6.6a4.973,4.973,0,0,0-.37,2.028,4.07,4.07,0,0,0,.851,2.782,3.251,3.251,0,0,0,2.568.962,6.026,6.026,0,0,0,1.222-.123A6.241,6.241,0,0,0,75.166-1.3l-.234.611V-3.926H73.073a.477.477,0,0,1-.351-.117.422.422,0,0,1-.117-.312.4.4,0,0,1,.117-.312.515.515,0,0,1,.351-.1H75.4a.458.458,0,0,1,.338.117.458.458,0,0,1,.117.338V-.923A.724.724,0,0,1,75.79-.6a.412.412,0,0,1-.221.2,7.225,7.225,0,0,1-1.306.371A7.644,7.644,0,0,1,72.787.117ZM78.611.091a.51.51,0,0,1-.4-.15.584.584,0,0,1-.137-.41V-8.619a.541.541,0,0,1,.143-.41.56.56,0,0,1,.4-.137h3.081a3.346,3.346,0,0,1,2.262.689,2.46,2.46,0,0,1,.793,1.963,2.65,2.65,0,0,1-.358,1.4,2.247,2.247,0,0,1-1.046.9,4.054,4.054,0,0,1-1.651.305l.13-.169h.26a1.518,1.518,0,0,1,.884.26,2.354,2.354,0,0,1,.689.832L84.916-.663a.666.666,0,0,1,.1.358.4.4,0,0,1-.123.286.474.474,0,0,1-.338.111.6.6,0,0,1-.364-.1.863.863,0,0,1-.247-.3L82.524-2.938a1.648,1.648,0,0,0-.689-.747,2.376,2.376,0,0,0-1.027-.188H79.144V-.468a.6.6,0,0,1-.13.41A.506.506,0,0,1,78.611.091Zm.533-4.81h2.4a2.491,2.491,0,0,0,1.612-.449,1.64,1.64,0,0,0,.546-1.346,1.608,1.608,0,0,0-.546-1.319,2.491,2.491,0,0,0-1.612-.448h-2.4ZM86.476.091a.52.52,0,0,1-.331-.1A.375.375,0,0,1,86-.266a.72.72,0,0,1,.071-.371l3.575-8.138a.86.86,0,0,1,.279-.37.622.622,0,0,1,.358-.111.622.622,0,0,1,.357.111.783.783,0,0,1,.267.37L94.5-.637a.676.676,0,0,1,.084.377.367.367,0,0,1-.136.26.518.518,0,0,1-.325.091.556.556,0,0,1-.377-.124.886.886,0,0,1-.234-.358l-.962-2.223.52.273h-5.59l.533-.273L87.061-.39a1.151,1.151,0,0,1-.247.364A.486.486,0,0,1,86.476.091Zm3.8-8.008L88.179-2.99l-.312-.247h4.81l-.286.247L90.3-7.917ZM96.72.091a.51.51,0,0,1-.4-.15.584.584,0,0,1-.137-.41V-8.619a.541.541,0,0,1,.143-.41.56.56,0,0,1,.4-.137h3.081a3.245,3.245,0,0,1,2.262.722,2.611,2.611,0,0,1,.793,2.035,2.615,2.615,0,0,1-.793,2.028,3.226,3.226,0,0,1-2.262.728H97.253V-.468a.6.6,0,0,1-.13.41A.506.506,0,0,1,96.72.091Zm.533-4.641h2.431a2.346,2.346,0,0,0,1.592-.475,1.746,1.746,0,0,0,.54-1.385,1.762,1.762,0,0,0-.54-1.4,2.346,2.346,0,0,0-1.592-.474H97.253ZM104.988.091a.51.51,0,0,1-.4-.15.584.584,0,0,1-.137-.41V-8.7a.58.58,0,0,1,.137-.416.523.523,0,0,1,.4-.143.523.523,0,0,1,.4.143.58.58,0,0,1,.136.416v3.588h5.5V-8.7a.58.58,0,0,1,.136-.416.523.523,0,0,1,.4-.143.523.523,0,0,1,.4.143.58.58,0,0,1,.137.416V-.468a.584.584,0,0,1-.137.41.51.51,0,0,1-.4.15.51.51,0,0,1-.4-.15.584.584,0,0,1-.136-.41V-4.186h-5.5V-.468a.6.6,0,0,1-.13.41A.506.506,0,0,1,104.988.091Zm9.932,0a.51.51,0,0,1-.4-.15.584.584,0,0,1-.137-.41V-8.7a.58.58,0,0,1,.137-.416.523.523,0,0,1,.4-.143.523.523,0,0,1,.4.143.58.58,0,0,1,.136.416V-.468a.6.6,0,0,1-.13.41A.506.506,0,0,1,114.92.091Zm9.867,1.638a.537.537,0,0,1,.11.358.45.45,0,0,1-.13.273.515.515,0,0,1-.585.1.63.63,0,0,1-.28-.266L123.058.858a1.377,1.377,0,0,0-.572-.552,1.873,1.873,0,0,0-.871-.188L122.5-.26a1.877,1.877,0,0,1,.968.215,2.292,2.292,0,0,1,.709.787ZM121.615.117A4.152,4.152,0,0,1,119.4-.462a3.838,3.838,0,0,1-1.456-1.632,5.639,5.639,0,0,1-.514-2.5,6.087,6.087,0,0,1,.293-1.957,4.138,4.138,0,0,1,.839-1.469,3.738,3.738,0,0,1,1.319-.936,4.364,4.364,0,0,1,1.735-.332,4.24,4.24,0,0,1,2.243.572,3.8,3.8,0,0,1,1.456,1.618,5.6,5.6,0,0,1,.514,2.49,6.024,6.024,0,0,1-.3,1.963,4.277,4.277,0,0,1-.845,1.482,3.7,3.7,0,0,1-1.319.943A4.4,4.4,0,0,1,121.615.117Zm0-.949a3.009,3.009,0,0,0,1.671-.442,2.8,2.8,0,0,0,1.047-1.287,5.109,5.109,0,0,0,.364-2.028,4.264,4.264,0,0,0-.8-2.763,2.774,2.774,0,0,0-2.282-.981,2.96,2.96,0,0,0-1.644.442,2.808,2.808,0,0,0-1.047,1.281,5.061,5.061,0,0,0-.364,2.022,4.273,4.273,0,0,0,.806,2.763A2.733,2.733,0,0,0,121.615-.832Zm9.776.949A4.79,4.79,0,0,1,129.8-.124a2.978,2.978,0,0,1-1.15-.715,2.993,2.993,0,0,1-.7-1.177,5.093,5.093,0,0,1-.234-1.612V-8.71a.556.556,0,0,1,.136-.41.537.537,0,0,1,.4-.136.537.537,0,0,1,.4.136.556.556,0,0,1,.137.41v5.031a3.032,3.032,0,0,0,.663,2.139,2.543,2.543,0,0,0,1.95.709,2.5,2.5,0,0,0,1.937-.709,3.072,3.072,0,0,0,.65-2.139V-8.71a.541.541,0,0,1,.143-.41.56.56,0,0,1,.4-.136.519.519,0,0,1,.383.136.556.556,0,0,1,.136.41v5.083a4.679,4.679,0,0,1-.41,2.054,2.722,2.722,0,0,1-1.229,1.268A4.359,4.359,0,0,1,131.391.117ZM137.865,0a.59.59,0,0,1-.436-.15.59.59,0,0,1-.15-.436V-8.58a.59.59,0,0,1,.15-.436.59.59,0,0,1,.436-.149H142.7a.458.458,0,0,1,.338.117.439.439,0,0,1,.117.325.458.458,0,0,1-.117.338.458.458,0,0,1-.338.117H138.32V-5.1h4.108a.474.474,0,0,1,.338.11.435.435,0,0,1,.117.332.458.458,0,0,1-.117.338.458.458,0,0,1-.338.117H138.32V-.9H142.7a.458.458,0,0,1,.338.117.439.439,0,0,1,.117.325.458.458,0,0,1-.117.338A.458.458,0,0,1,142.7,0Z" transform="translate(54.002 99.613)" fill="gray"/>
  <g id="Groupe_456" data-name="Groupe 456">
    <g id="Groupe_455" data-name="Groupe 455" clip-path="url(#clip-path)">
      <path id="Tracé_442" data-name="Tracé 442" d="M405.846,77.644H393.627a5.561,5.561,0,0,1-5.561-5.561V5.856A5.561,5.561,0,0,1,393.627.3h12.219a5.561,5.561,0,0,1,5.561,5.561V72.083a5.561,5.561,0,0,1-5.561,5.561" transform="translate(-267.076 -0.203)" fill="#141a68"/>
      <path id="Tracé_443" data-name="Tracé 443" d="M730.368,5.96v15.56a5.461,5.461,0,0,0,5.359,5.557h18.756a5.461,5.461,0,0,1,5.359,5.557v6.113a5.461,5.461,0,0,1-5.359,5.557H735.727a5.461,5.461,0,0,0-5.359,5.557V72.093a5.461,5.461,0,0,0,5.359,5.557h26.259a5.461,5.461,0,0,0,5.359-5.557V5.96A5.461,5.461,0,0,0,761.986.4H735.727a5.461,5.461,0,0,0-5.359,5.557" transform="translate(-502.656 -0.277)" fill="#141a68"/>
    </g>
  </g>
</svg>
