<svg id="Composant_84_1" data-name="Composant 84 – 1" xmlns="http://www.w3.org/2000/svg" width="282.57" height="99.263" viewBox="0 0 282.57 99.263">
  <path id="adobe-illustrator-svgrepo-com" d="M16.447,16.591c-.156-.484-.3-.953-.453-1.437s-.3-.937-.422-1.39c-.125-.437-.234-.843-.344-1.218H15.2a19.177,19.177,0,0,1-.531,2.015c-.234.75-.469,1.531-.718,2.312-.219.8-.453,1.531-.687,2.187h3.967c-.094-.33-.219-.718-.359-1.126S16.588,17.059,16.447,16.591ZM30.848.3H6.638A6.633,6.633,0,0,0,0,6.938V30.211a6.633,6.633,0,0,0,6.638,6.638h24.21a6.633,6.633,0,0,0,6.638-6.638V6.938A6.633,6.633,0,0,0,30.848.3ZM22.96,26.119H19.694a.235.235,0,0,1-.248-.172l-1.281-3.717h-5.81L11.168,25.9a.276.276,0,0,1-.3.22H7.935c-.172,0-.219-.1-.172-.281l5.029-14.481c.047-.156.094-.328.156-.515a5.456,5.456,0,0,0,.094-1.015.155.155,0,0,1,.125-.172h4.045c.125,0,.187.047.2.125l5.7,16.088c.047.17,0,.25-.156.25Zm5.311-.234c0,.172-.061.25-.2.25H25.006a.219.219,0,0,1-.234-.25V13.858c0-.156.064-.219.2-.219h3.093c.141,0,.2.078.2.219Zm-.326-14.1a1.842,1.842,0,0,1-1.423.547,1.939,1.939,0,0,1-1.392-.547,2.029,2.029,0,0,1-.531-1.437,1.842,1.842,0,0,1,.561-1.39,2.013,2.013,0,0,1,1.393-.547,1.87,1.87,0,0,1,1.421.547,1.972,1.972,0,0,1,.515,1.39,1.982,1.982,0,0,1-.545,1.437Z" transform="translate(60.662 1.373)" fill="#fff"/>
  <g id="adobe-xd-1-logo-svgrepo-com" transform="translate(120.722 1.671)">
    <path id="Soustraction_89" data-name="Soustraction 89" d="M30.849,36.55H6.638A6.631,6.631,0,0,1,0,29.912V6.638A6.632,6.632,0,0,1,6.638,0H30.849a6.634,6.634,0,0,1,6.638,6.638V29.912a6.633,6.633,0,0,1-6.638,6.638ZM26.225,13.169a6.1,6.1,0,0,0-6.263,6.48c0,3.963,2.161,6.33,5.78,6.33h.031a9.389,9.389,0,0,0,4-.907c.094-.05.125-.081.125-.173a10.982,10.982,0,0,1-.079-1.53V9.029c0-.088-.045-.125-.155-.125h-2.47a.157.157,0,0,0-.155.158V13.2A7.055,7.055,0,0,0,26.225,13.169ZM12.96,19.214h.033c.747,1.584,1.486,3.1,2.2,4.571l.015.031q.425.874.846,1.74a.307.307,0,0,0,.328.2H19.1a.126.126,0,0,0,.117-.062.188.188,0,0,0-.023-.188l-4.374-8.4,4.143-8a.164.164,0,0,0,.026-.162.129.129,0,0,0-.12-.057H16.354c-.154,0-.2.073-.277.2l-.006.008c-.952,2.014-1.959,4.165-2.875,6.248h-.031c-.99-2.2-2.032-4.4-2.92-6.264a.246.246,0,0,0-.28-.173H7.277a.134.134,0,0,0-.119.07.14.14,0,0,0,.028.149l4.138,8.247L7.045,25.525a.152.152,0,0,0-.039.157.132.132,0,0,0,.13.063H9.711a.3.3,0,0,0,.283-.174c1.047-2.164,2.073-4.362,2.966-6.356Zm13,4.343c-2.016,0-3.172-1.469-3.172-4.031,0-2.449,1.312-4.031,3.343-4.031a2.381,2.381,0,0,1,.906.155v7.733A2.855,2.855,0,0,1,25.96,23.557Z" transform="translate(0 0)" fill="#fff"/>
  </g>
  <path id="Soustraction_90" data-name="Soustraction 90" d="M30.849,36.55H6.638A6.634,6.634,0,0,1,0,29.912V6.638A6.633,6.633,0,0,1,6.638,0H30.849a6.633,6.633,0,0,1,6.638,6.638V29.912a6.634,6.634,0,0,1-6.638,6.638Zm-8.612-13.5a.217.217,0,0,0-.089.018.238.238,0,0,0-.138.16l-.671,2.712a.236.236,0,0,0,.116.262,8.835,8.835,0,0,0,4.042.874c3.4,0,5.508-1.6,5.508-4.169-.027-1.933-1.1-3.159-3.465-3.975-1.549-.542-1.81-.8-1.81-1.173,0-.663.758-.762,1.21-.762a5.725,5.725,0,0,1,2.525.669.237.237,0,0,0,.206.008.227.227,0,0,0,.133-.155l.672-2.612a.236.236,0,0,0-.122-.268,8.392,8.392,0,0,0-3.537-.721c-3.053,0-5.186,1.731-5.186,4.21-.021,1.209.59,2.864,3.618,3.883,1.471.49,1.632.745,1.632,1.171,0,.195,0,.787-1.383.787a7.148,7.148,0,0,1-3.139-.887A.235.235,0,0,0,22.237,23.054ZM13.579,9.469a31.752,31.752,0,0,0-5.164.352.233.233,0,0,0-.194.231V26.6a.233.233,0,0,0,.233.232h3.758a.233.233,0,0,0,.233-.232V20.865c.3.029.656.044,1.061.044a8.02,8.02,0,0,0,5.609-1.831,5.617,5.617,0,0,0,1.616-4.149,5.114,5.114,0,0,0-1.879-4.064A8.262,8.262,0,0,0,13.579,9.469Zm-.1,8.061a6.954,6.954,0,0,1-1.036-.057V12.9a7.226,7.226,0,0,1,1.335-.1c1.733,0,2.727.813,2.727,2.229C16.506,16.594,15.375,17.53,13.481,17.53Z" transform="translate(179.898 1.672)" fill="#fff"/>
  <path id="laravel-svgrepo-com" d="M34.73,8.014a.538.538,0,0,1,.021.146v7.6a.555.555,0,0,1-.279.481l-6.38,3.675V27.2a.557.557,0,0,1-.277.481L14.492,35.345a.466.466,0,0,1-.1.04c-.012,0-.024.012-.035.015a.514.514,0,0,1-.283,0,.186.186,0,0,1-.043-.018.717.717,0,0,1-.093-.037L.624,27.679A.555.555,0,0,1,.345,27.2V4.389a.535.535,0,0,1,.021-.145A.456.456,0,0,1,.386,4.2.544.544,0,0,1,.42,4.112a.181.181,0,0,1,.034-.049C.472,4.039.485,4.017.5,4s.037-.027.055-.04.04-.035.061-.05h0L7.28.074a.553.553,0,0,1,.553,0l6.659,3.833h0a.624.624,0,0,1,.061.049L14.61,4a.77.77,0,0,1,.049.066.282.282,0,0,1,.037.049.476.476,0,0,1,.035.086c0,.016.016.031.019.047a.47.47,0,0,1,.021.145V18.632l5.549-3.194V8.157a.535.535,0,0,1,.021-.145c0-.016.013-.031.019-.047a.719.719,0,0,1,.035-.087c.01-.018.027-.031.037-.049s.031-.044.049-.063a.332.332,0,0,1,.055-.041.608.608,0,0,1,.061-.047h0l6.66-3.834a.553.553,0,0,1,.553,0l6.66,3.834c.024.015.04.031.062.046s.037.027.053.041.032.043.05.065a.338.338,0,0,1,.035.049.432.432,0,0,1,.035.087A.237.237,0,0,1,34.73,8.014ZM33.637,15.44V9.119l-2.329,1.34-3.22,1.854v6.321l5.549-3.194ZM26.98,26.877V20.551l-3.167,1.808-9.042,5.162v6.384L26.98,26.877ZM1.452,5.348V26.877l12.209,7.028V27.521L7.283,23.912l0,0h0c-.021-.015-.037-.031-.059-.046s-.035-.027-.052-.04v0a.341.341,0,0,1-.046-.058.3.3,0,0,1-.041-.055h0a.754.754,0,0,1-.03-.069.58.58,0,0,1-.027-.063.722.722,0,0,1-.012-.084A.428.428,0,0,1,7,23.43V8.544L3.781,6.688,1.452,5.348ZM7.556,1.2,2.007,4.389,7.556,7.583,13.1,4.389Zm2.887,19.931,3.22-1.854V5.348L11.331,6.69,8.111,8.544V22.468l2.332-1.342ZM27.535,4.965,21.986,8.158l5.549,3.192,5.548-3.194L27.535,4.965Zm-.555,7.348-3.22-1.854-2.33-1.34V15.44l3.22,1.854,2.33,1.34ZM14.215,26.56l8.138-4.646,4.067-2.32L20.875,16.4l-6.381,3.673-5.816,3.35,5.537,3.135Z" transform="translate(61.858 60.583)" fill="#fff"/>
  <g id="XMLID_106_" transform="translate(125.117 62.712)">
    <path id="XMLID_107_" d="M18.331,0a.55.55,0,0,0-.556.608l2.832,31.766a.951.951,0,0,0,.643.772l12.018,3.337a2.606,2.606,0,0,0,1.177,0L46.5,33.141a.951.951,0,0,0,.643-.772L49.978.608A.55.55,0,0,0,49.422,0ZM43.947,7.285c-.027.3-.073.816-.1,1.151l-.075.833c-.03.334-.073.813-.1,1.063s-.044.455-.048.455H28.765a.55.55,0,0,0-.556.608l.262,2.926a.682.682,0,0,0,.665.608H42.72a.489.489,0,0,1,.495.543c-.027.3-.074.817-.1,1.151l-.842,9.434c-.03.335-.068.762-.084.95s-.3.415-.619.5l-7.1,1.969-.6.165c-.005,0-.274-.072-.6-.161l-7.109-1.973a.951.951,0,0,1-.643-.772L25.061,21.6A.55.55,0,0,1,25.617,21h2.838a.682.682,0,0,1,.665.608l.179,2.011a.942.942,0,0,0,.644.767l3.325.9.592.159.592-.159,3.331-.9a.943.943,0,0,0,.644-.767l.361-4.028a.55.55,0,0,0-.556-.608h-12.8a.682.682,0,0,1-.665-.608l-.886-9.932c-.03-.335-.076-.853-.1-1.151a.523.523,0,0,1,.562-.543h19.04A.523.523,0,0,1,43.947,7.285Z" transform="translate(-17.772)" fill="#fff"/>
  </g>
  <path id="bootstrap-svgrepo-com" d="M20.434,17.72H17.284V12.446H21.02c2.031,0,3.184.906,3.184,2.545,0,1.75-1.342,2.729-3.774,2.729ZM21,19.814h-3.71v5.812h3.873c2.533,0,3.875-1.016,3.875-2.925S23.654,19.814,21,19.814Zm20.67-1.833V20.1c-1.958.187-3.154,1.639-3.864,3.937a23.372,23.372,0,0,0-.729,7.267,4.154,4.154,0,0,1-4.057,4.34H8.654A4.152,4.152,0,0,1,4.6,31.3a23.372,23.372,0,0,0-.729-7.267c-.712-2.3-1.91-3.75-3.868-3.937V17.981c1.958-.187,3.158-1.639,3.866-3.937A23.268,23.268,0,0,0,4.6,6.776a4.154,4.154,0,0,1,4.059-4.34H33.015a4.153,4.153,0,0,1,4.057,4.34,23.372,23.372,0,0,0,.729,7.267C38.511,16.342,39.707,17.793,41.666,17.981ZM27.9,22.871a4.288,4.288,0,0,0-4.111-4.319v-.1a3.945,3.945,0,0,0,3.222-3.842c0-2.668-2.106-4.406-5.316-4.406H14.477V27.864h7.259C25.586,27.864,27.9,25.979,27.9,22.871Z" transform="translate(181.675 60.362)" fill="#fff"/>
  <g id="XMLID_21_" transform="translate(0 59.453)">
    <path id="XMLID_4_" d="M.005,18.274a18.276,18.276,0,0,0,10.3,16.447L1.587,10.837A18.209,18.209,0,0,0,.005,18.274Zm30.611-.922a9.623,9.623,0,0,0-1.507-5.04c-.926-1.506-1.794-2.78-1.794-4.286a3.164,3.164,0,0,1,3.068-3.243c.081,0,.159.01.237.015A18.27,18.27,0,0,0,3.011,8.236c.429.014.834.023,1.176.023,1.911,0,4.871-.232,4.871-.232a.755.755,0,0,1,.116,1.506s-.99.116-2.091.173l6.654,19.8,4-11.994-2.847-7.8c-.985-.057-1.916-.173-1.916-.173a.755.755,0,0,1,.116-1.506s3.017.232,4.813.232c1.911,0,4.871-.232,4.871-.232a.755.755,0,0,1,.116,1.506s-.991.116-2.091.173L27.4,29.35l1.823-6.09A17.022,17.022,0,0,0,30.616,17.353ZM18.6,19.873,13.117,35.806a18.284,18.284,0,0,0,11.231-.292,1.722,1.722,0,0,1-.131-.252ZM34.316,9.508a13.963,13.963,0,0,1,.123,1.879,17.254,17.254,0,0,1-1.39,6.545L27.467,34.07A18.277,18.277,0,0,0,34.316,9.508Z" transform="translate(-0.005 0)" fill="#fff"/>
  </g>
  <g id="edit-draw-svgrepo-com" transform="translate(0 0)">
    <g id="Groupe_401" data-name="Groupe 401" transform="translate(0 0)">
      <g id="Groupe_400" data-name="Groupe 400" transform="translate(0 0)">
        <path id="Tracé_400" data-name="Tracé 400" d="M115.005,2.7A3.131,3.131,0,0,0,113.537.791L112.9.424a3.151,3.151,0,0,0-4.3,1.153L90.762,32.468a.84.84,0,0,0-.11.362s0,0,0,.008l-.311,5.188H84.589a.84.84,0,1,0,0,1.68s6.622,0,6.642-.007a.838.838,0,0,0,.362-.132l5-3.3.007-.006a.834.834,0,0,0,.258-.275L114.691,5.1A3.131,3.131,0,0,0,115.005,2.7ZM92.071,37.238l.177-2.943,2.284,1.318Zm3.75-2.82L92.638,32.58,106.4,8.735l3.183,1.838Zm14.607-25.3-3.183-1.838,1.351-2.34,3.183,1.838Zm2.807-4.862-.616,1.066-3.183-1.838.616-1.066a1.47,1.47,0,0,1,2.009-.538l.636.367a1.47,1.47,0,0,1,.538,2.009Z" transform="translate(-79.1 -0.001)" fill="#fff"/>
        <path id="Tracé_401" data-name="Tracé 401" d="M25.194,490.331h-.56a.84.84,0,1,0,0,1.68h.56a.84.84,0,0,0,0-1.68Z" transform="translate(-23.794 -452.306)" fill="#fff"/>
      </g>
    </g>
  </g>
  <g id="mysql-svgrepo-com" transform="translate(237.024 61.167)">
    <g id="Groupe_429" data-name="Groupe 429" transform="translate(17.009 0)">
      <g id="Groupe_428" data-name="Groupe 428" transform="translate(0 0)">
        <path id="Tracé_426" data-name="Tracé 426" d="M107.1,0C101.717,0,96,1.666,96,4.756V19.025c0,3.123,5.582,4.756,11.1,4.756s11.1-1.633,11.1-4.756V4.756C118.2,1.666,112.479,0,107.1,0Zm9.513,19.025c0,1.5-3.906,3.171-9.513,3.171s-9.513-1.671-9.513-3.171V16.8c2.072,1.455,5.866,2.223,9.513,2.223s7.44-.767,9.513-2.223Zm0-4.756c0,1.324-3.62,3.171-9.513,3.171s-9.513-1.847-9.513-3.171V12.046c2.072,1.455,5.866,2.223,9.513,2.223s7.44-.767,9.513-2.223Zm0-4.756c0,1.324-3.62,3.171-9.513,3.171s-9.513-1.847-9.513-3.171V7.29c2.072,1.455,5.866,2.223,9.513,2.223s7.44-.767,9.513-2.223ZM107.1,7.927c-5.893,0-9.513-1.847-9.513-3.171s3.62-3.171,9.513-3.171,9.513,1.847,9.513,3.171S112.991,7.927,107.1,7.927Z" transform="translate(-96 0)" fill="#fff"/>
      </g>
    </g>
    <g id="Groupe_431" data-name="Groupe 431" transform="translate(24.934 25.365)">
      <g id="Groupe_430" data-name="Groupe 430">
        <path id="Tracé_427" data-name="Tracé 427" d="M206.066,344.514l-.235-.04c-1.39-.227-1.6-.588-1.6-.783,0-.315.633-.793,1.587-.793.937,0,1.555.446,1.587.766a.779.779,0,0,0,.864.713.792.792,0,0,0,.713-.864c-.12-1.256-1.481-2.2-3.166-2.2-1.779,0-3.172,1.045-3.172,2.378,0,1.241.985,2.031,2.928,2.348l.128-.782.106.821c1.318.217,1.593.547,1.593.785,0,.315-.633.793-1.587.793-.937,0-1.555-.447-1.587-.767a.781.781,0,0,0-.864-.713.792.792,0,0,0-.713.864c.121,1.256,1.481,2.2,3.166,2.2,1.779,0,3.172-1.045,3.172-2.378C208.989,345.622,208.006,344.832,206.066,344.514Z" transform="translate(-202.646 -341.311)" fill="#fff"/>
      </g>
    </g>
    <g id="Groupe_433" data-name="Groupe 433" transform="translate(32.863 25.367)">
      <g id="Groupe_432" data-name="Groupe 432">
        <path id="Tracé_428" data-name="Tracé 428" d="M315.676,343.711a2.381,2.381,0,0,0-2.378-2.378h-1.585a2.381,2.381,0,0,0-2.378,2.378v3.171a2.381,2.381,0,0,0,2.378,2.378H313.3a2.355,2.355,0,0,0,1.018-.238l.006.006a.793.793,0,0,0,1.121-1.121l-.006-.006a2.341,2.341,0,0,0,.239-1.019Zm-1.585,2.844-.233-.233a.793.793,0,1,0-1.121,1.121l.232.231h-1.256a.793.793,0,0,1-.793-.793v-3.171a.793.793,0,0,1,.793-.793H313.3a.793.793,0,0,1,.793.793Z" transform="translate(-309.334 -341.333)" fill="#fff"/>
      </g>
    </g>
    <g id="Groupe_435" data-name="Groupe 435" transform="translate(40.79 25.367)">
      <g id="Groupe_434" data-name="Groupe 434" transform="translate(0)">
        <path id="Tracé_429" data-name="Tracé 429" d="M419.963,347.675h-2.378v-5.549a.793.793,0,0,0-1.585,0v6.342a.793.793,0,0,0,.793.793h3.171a.793.793,0,1,0,0-1.585Z" transform="translate(-415.999 -341.333)" fill="#fff"/>
      </g>
    </g>
    <g id="Groupe_437" data-name="Groupe 437" transform="translate(18.592 28.537)">
      <g id="Groupe_436" data-name="Groupe 436">
        <path id="Tracé_430" data-name="Tracé 430" d="M121.631,384.07a.794.794,0,0,0-1.064.355l-.877,1.755-.877-1.754a.793.793,0,1,0-1.419.709l1.409,2.817-1.408,2.814a.793.793,0,1,0,1.419.709l3.171-6.342A.794.794,0,0,0,121.631,384.07Z" transform="translate(-117.311 -383.987)" fill="#fff"/>
      </g>
    </g>
    <g id="Groupe_439" data-name="Groupe 439" transform="translate(10.667 25.367)">
      <g id="Groupe_438" data-name="Groupe 438" transform="translate(0)">
        <path id="Tracé_431" data-name="Tracé 431" d="M16.466,341.372a.791.791,0,0,0-.885.276l-1.744,2.324-1.744-2.324a.793.793,0,0,0-1.427.476v6.342a.793.793,0,1,0,1.585,0V344.5l.951,1.268a.821.821,0,0,0,1.268,0l.951-1.268v3.964a.793.793,0,1,0,1.585,0v-6.342A.793.793,0,0,0,16.466,341.372Z" transform="translate(-10.667 -341.331)" fill="#fff"/>
      </g>
    </g>
  </g>
</svg>
