<svg id="Composant_96_1" data-name="Composant 96 – 1" xmlns="http://www.w3.org/2000/svg" xmlns:xlink="http://www.w3.org/1999/xlink" width="958.004" height="409.262" viewBox="0 0 958.004 409.262">
  <defs>
    <clipPath id="clip-path">
      <rect id="Rectangle_512" data-name="Rectangle 512" width="958.004" height="409.261" fill="none"/>
    </clipPath>
  </defs>
  <g id="Groupe_454" data-name="Groupe 454">
    <g id="Groupe_453" data-name="Groupe 453" clip-path="url(#clip-path)">
      <path id="Tracé_437" data-name="Tracé 437" d="M47.179,261.754H20.089A20.085,20.085,0,0,1,0,241.673v-79.8a20.086,20.086,0,0,1,20.089-20.081h27.09q44.956,0,65.982,13.677,21.006,13.68,21.007,43.846,0,62.449-86.989,62.439" transform="translate(0 17.949)" fill="#e50e42"/>
      <path id="Tracé_438" data-name="Tracé 438" d="M47.179,119.96H20.089A20.085,20.085,0,0,1,0,99.879V20.08A20.086,20.086,0,0,1,20.089,0h27.09q44.956,0,65.982,13.677,21.006,13.68,21.007,43.846,0,62.45-86.989,62.439" transform="translate(0 0)" fill="#141a68"/>
      <path id="Tracé_439" data-name="Tracé 439" d="M240.907,119.454H218.457c-13.561,0-24.555-8.811-24.555-19.681V20.086C193.9,9.217,204.9.405,218.457.405h22.451q44.79,0,65.739,13.573,20.93,13.575,20.928,43.511,0,61.975-86.667,61.965" transform="translate(24.643 0.051)" fill="#e50e42"/>
      <path id="Tracé_440" data-name="Tracé 440" d="M218.458,261.735h81.587c18.87,0,30.687-16.682,21.3-30.07L267.106,154.3c-4.132-5.892-11.625-9.677-19.917-10.06l-27.347-1.264c-14.083-.65-25.94,8.514-25.94,20.049v78.632c0,11.091,10.994,20.081,24.555,20.081" transform="translate(24.643 18.094)" fill="#141a68"/>
      <path id="Tracé_441" data-name="Tracé 441" d="M670.464,48.244a27.551,27.551,0,0,0-4.02-14.89C652.825,12.742,635.218.3,615.975.3,572.8.3,537.794,62.862,537.794,140.044s35,139.749,78.181,139.749c19.243,0,36.851-12.447,50.469-33.059a27.551,27.551,0,0,0,4.02-14.89Z" transform="translate(68.348 0.037)" fill="#e50e42"/>
    </g>
  </g>
  <g id="Groupe_456" data-name="Groupe 456">
    <g id="Groupe_455" data-name="Groupe 455" clip-path="url(#clip-path)">
      <path id="Tracé_442" data-name="Tracé 442" d="M452.341,279.792H408.169a20.1,20.1,0,0,1-20.1-20.095V20.39A20.1,20.1,0,0,1,408.169.3h44.172a20.1,20.1,0,0,1,20.1,20.095V259.7a20.1,20.1,0,0,1-20.1,20.095" transform="translate(49.319 0.037)" fill="#141a68"/>
      <path id="Tracé_443" data-name="Tracé 443" d="M730.368,20.484V76.711c0,11.091,8.673,20.081,19.373,20.081h67.8c10.7,0,19.372,8.99,19.372,20.081v22.089c0,11.09-8.673,20.081-19.372,20.081h-67.8c-10.7,0-19.373,8.99-19.373,20.08v80.325c0,11.091,8.673,20.081,19.373,20.081h94.927c10.7,0,19.373-8.99,19.373-20.081V20.484C864.04,9.394,855.366.4,844.667.4H749.741c-10.7,0-19.373,8.991-19.373,20.081" transform="translate(92.823 0.051)" fill="#141a68"/>
    </g>
  </g>
  <path id="Tracé_787" data-name="Tracé 787" d="M3.429,27.185A2.318,2.318,0,0,1,1.718,26.6a2.318,2.318,0,0,1-.587-1.711V-6.524a2.318,2.318,0,0,1,.587-1.711,2.318,2.318,0,0,1,1.711-.587h9.857q8.734,0,13.484,4.6T31.52,9.156a22.869,22.869,0,0,1-1.2,7.738,14.71,14.71,0,0,1-3.55,5.644,15.2,15.2,0,0,1-5.72,3.473,23.552,23.552,0,0,1-7.763,1.175Zm1.89-3.575H12.98a18.833,18.833,0,0,0,6.206-.919,11.282,11.282,0,0,0,4.392-2.707,11.1,11.1,0,0,0,2.63-4.52,20.845,20.845,0,0,0,.868-6.308q0-7.2-3.524-10.8T12.98-5.247H5.319ZM41.48,27.185a2.059,2.059,0,0,1-2.3-2.3V-6.524a2.318,2.318,0,0,1,.587-1.711,2.318,2.318,0,0,1,1.711-.587h19a1.8,1.8,0,0,1,1.328.46,1.726,1.726,0,0,1,.46,1.277,1.8,1.8,0,0,1-.46,1.328,1.8,1.8,0,0,1-1.328.46H43.267V7.164H59.407a1.862,1.862,0,0,1,1.328.434,1.709,1.709,0,0,1,.46,1.3,1.8,1.8,0,0,1-.46,1.328,1.8,1.8,0,0,1-1.328.46H43.267V23.661H60.479a1.8,1.8,0,0,1,1.328.46,1.726,1.726,0,0,1,.46,1.277,1.608,1.608,0,0,1-1.788,1.788Zm38.765.46a26.794,26.794,0,0,1-4.7-.409,22.643,22.643,0,0,1-4.265-1.175,15.154,15.154,0,0,1-3.55-1.941,2.427,2.427,0,0,1-.843-1.047,2,2,0,0,1-.1-1.175,2.066,2.066,0,0,1,.511-1,1.431,1.431,0,0,1,.945-.46,2.012,2.012,0,0,1,1.226.358,15.937,15.937,0,0,0,4.9,2.375,21.481,21.481,0,0,0,5.874.741q4.6,0,6.818-1.711a5.428,5.428,0,0,0,2.222-4.52,4.378,4.378,0,0,0-1.609-3.6,12.866,12.866,0,0,0-5.388-2.069l-5.312-1.073A14.339,14.339,0,0,1,69.8,7.6a8.287,8.287,0,0,1-2.375-6.206,9.732,9.732,0,0,1,.97-4.367A9.965,9.965,0,0,1,71.1-6.345,12.587,12.587,0,0,1,75.24-8.516a17.406,17.406,0,0,1,5.312-.766,19.523,19.523,0,0,1,6,.894,15.739,15.739,0,0,1,5.031,2.681,2.354,2.354,0,0,1,.766,1.047A1.826,1.826,0,0,1,92.4-3.536a1.915,1.915,0,0,1-.536.894,1.576,1.576,0,0,1-.97.409,2.111,2.111,0,0,1-1.3-.409,14.1,14.1,0,0,0-4.239-2.222A16.142,16.142,0,0,0,80.5-5.554a12.139,12.139,0,0,0-4.673.817,6.861,6.861,0,0,0-3.064,2.375,6.092,6.092,0,0,0-1.1,3.6,5.1,5.1,0,0,0,1.507,3.882A9.865,9.865,0,0,0,78.1,7.215l5.312,1.124q5.158,1.073,7.636,3.243a7.441,7.441,0,0,1,2.477,5.9,9.329,9.329,0,0,1-.919,4.137,9.159,9.159,0,0,1-2.656,3.243,12.364,12.364,0,0,1-4.188,2.069A19.69,19.69,0,0,1,80.245,27.645Zm22.013-.1a2,2,0,0,1-1.558-.587,2.3,2.3,0,0,1-.536-1.609V-6.984a2.278,2.278,0,0,1,.536-1.634,2.053,2.053,0,0,1,1.558-.562,2.053,2.053,0,0,1,1.558.562,2.278,2.278,0,0,1,.536,1.634v32.33a2.369,2.369,0,0,1-.511,1.609A1.989,1.989,0,0,1,102.258,27.542Zm27.631.1a19.812,19.812,0,0,1-9.73-2.2,14.307,14.307,0,0,1-6-6.333,22.173,22.173,0,0,1-2.043-9.908,24.15,24.15,0,0,1,1.149-7.712,15.639,15.639,0,0,1,3.371-5.8,15.126,15.126,0,0,1,5.414-3.677,18.988,18.988,0,0,1,7.227-1.3,21.8,21.8,0,0,1,6.231.894,15.039,15.039,0,0,1,5.363,2.835,1.944,1.944,0,0,1,.766,1.021,1.945,1.945,0,0,1-.026,1.124,2.3,2.3,0,0,1-.562.945,1.51,1.51,0,0,1-.97.434,1.858,1.858,0,0,1-1.2-.358,14.077,14.077,0,0,0-4.443-2.375,17.271,17.271,0,0,0-5.21-.741A13.009,13.009,0,0,0,122.3-3.766a10.881,10.881,0,0,0-4.29,5.005,19.537,19.537,0,0,0-1.456,7.968q0,7.15,3.345,10.93t10.087,3.779a23.675,23.675,0,0,0,4.8-.485,24.522,24.522,0,0,0,4.443-1.353l-.919,2.4V11.761h-7.3a1.873,1.873,0,0,1-1.379-.46,1.657,1.657,0,0,1-.46-1.226,1.555,1.555,0,0,1,.46-1.226,2.022,2.022,0,0,1,1.379-.409h9.142a1.8,1.8,0,0,1,1.328.46,1.8,1.8,0,0,1,.46,1.328v13.33a2.843,2.843,0,0,1-.255,1.277,1.617,1.617,0,0,1-.868.766,28.385,28.385,0,0,1-5.133,1.456A30.031,30.031,0,0,1,129.889,27.645Zm22.779-.1a1.95,1.95,0,0,1-1.481-.536,2.174,2.174,0,0,1-.511-1.558V-7.035a2.27,2.27,0,0,1,.511-1.583,1.711,1.711,0,0,1,1.328-.562,2.045,2.045,0,0,1,1.2.281,4.512,4.512,0,0,1,.894,1l22.268,29.674h-1.226V-7.137a2.1,2.1,0,0,1,.511-1.507,1.949,1.949,0,0,1,1.481-.536,1.8,1.8,0,0,1,1.4.536,2.167,2.167,0,0,1,.485,1.507V25.5a2.336,2.336,0,0,1-.434,1.507,1.516,1.516,0,0,1-1.251.536,2.178,2.178,0,0,1-1.226-.306,4.326,4.326,0,0,1-.97-.97L153.434-3.408h1.175V25.448a2.174,2.174,0,0,1-.511,1.558A1.881,1.881,0,0,1,152.668,27.542Zm38.255-.358a2.059,2.059,0,0,1-2.3-2.3V-6.524a2.318,2.318,0,0,1,.587-1.711,2.318,2.318,0,0,1,1.711-.587h19a1.8,1.8,0,0,1,1.328.46,1.726,1.726,0,0,1,.46,1.277,1.8,1.8,0,0,1-.46,1.328,1.8,1.8,0,0,1-1.328.46H192.71V7.164H208.85a1.862,1.862,0,0,1,1.328.434,1.71,1.71,0,0,1,.46,1.3,1.8,1.8,0,0,1-.46,1.328,1.8,1.8,0,0,1-1.328.46H192.71V23.661h17.212a1.8,1.8,0,0,1,1.328.46,1.726,1.726,0,0,1,.46,1.277,1.608,1.608,0,0,1-1.788,1.788Zm29.725.358a2,2,0,0,1-1.558-.587,2.3,2.3,0,0,1-.536-1.609V-6.677a2.125,2.125,0,0,1,.562-1.609,2.2,2.2,0,0,1,1.583-.536h12.1q5.771,0,8.887,2.707T244.806,1.6a10.411,10.411,0,0,1-1.4,5.49,8.829,8.829,0,0,1-4.111,3.524,15.929,15.929,0,0,1-6.486,1.2l.511-.664h1.021a5.966,5.966,0,0,1,3.473,1.021,9.251,9.251,0,0,1,2.707,3.269l4.9,9.142a2.617,2.617,0,0,1,.383,1.4,1.56,1.56,0,0,1-.485,1.124,1.862,1.862,0,0,1-1.328.434,2.37,2.37,0,0,1-1.43-.409,3.388,3.388,0,0,1-.97-1.175l-5.567-10.317a6.475,6.475,0,0,0-2.707-2.937,9.334,9.334,0,0,0-4.035-.741h-6.538V25.346a2.369,2.369,0,0,1-.511,1.609A1.989,1.989,0,0,1,220.648,27.542Zm2.094-18.9h9.449q4.188,0,6.333-1.762A6.442,6.442,0,0,0,240.669,1.6a6.319,6.319,0,0,0-2.145-5.184q-2.145-1.762-6.333-1.762h-9.449Zm59.91,19a19.812,19.812,0,0,1-9.73-2.2,14.307,14.307,0,0,1-6-6.333,22.172,22.172,0,0,1-2.043-9.908,24.151,24.151,0,0,1,1.149-7.712A15.639,15.639,0,0,1,269.4-4.3a15.126,15.126,0,0,1,5.414-3.677,18.987,18.987,0,0,1,7.227-1.3,21.8,21.8,0,0,1,6.231.894,15.039,15.039,0,0,1,5.363,2.835,1.944,1.944,0,0,1,.766,1.021,1.945,1.945,0,0,1-.026,1.124,2.3,2.3,0,0,1-.562.945,1.51,1.51,0,0,1-.97.434,1.858,1.858,0,0,1-1.2-.358A14.077,14.077,0,0,0,287.2-4.762a17.271,17.271,0,0,0-5.21-.741,13.009,13.009,0,0,0-6.921,1.737,10.882,10.882,0,0,0-4.29,5.005,19.537,19.537,0,0,0-1.456,7.968q0,7.15,3.345,10.93t10.087,3.779a23.676,23.676,0,0,0,4.8-.485A24.521,24.521,0,0,0,292,22.078l-.919,2.4V11.761h-7.3a1.873,1.873,0,0,1-1.379-.46,1.657,1.657,0,0,1-.46-1.226,1.555,1.555,0,0,1,.46-1.226,2.022,2.022,0,0,1,1.379-.409h9.142a1.8,1.8,0,0,1,1.328.46,1.8,1.8,0,0,1,.46,1.328v13.33a2.842,2.842,0,0,1-.255,1.277,1.617,1.617,0,0,1-.868.766,28.385,28.385,0,0,1-5.133,1.456A30.031,30.031,0,0,1,282.652,27.645Zm22.881-.1a2,2,0,0,1-1.558-.587,2.3,2.3,0,0,1-.536-1.609V-6.677A2.125,2.125,0,0,1,304-8.286a2.2,2.2,0,0,1,1.583-.536h12.1q5.771,0,8.887,2.707T329.691,1.6a10.411,10.411,0,0,1-1.4,5.49,8.829,8.829,0,0,1-4.111,3.524,15.929,15.929,0,0,1-6.486,1.2l.511-.664h1.021a5.965,5.965,0,0,1,3.473,1.021,9.25,9.25,0,0,1,2.707,3.269l4.9,9.142a2.617,2.617,0,0,1,.383,1.4,1.56,1.56,0,0,1-.485,1.124,1.862,1.862,0,0,1-1.328.434,2.37,2.37,0,0,1-1.43-.409,3.388,3.388,0,0,1-.97-1.175l-5.567-10.317a6.475,6.475,0,0,0-2.707-2.937,9.334,9.334,0,0,0-4.035-.741h-6.537V25.346a2.369,2.369,0,0,1-.511,1.609A1.989,1.989,0,0,1,305.533,27.542Zm2.094-18.9h9.449q4.188,0,6.333-1.762A6.442,6.442,0,0,0,325.554,1.6a6.319,6.319,0,0,0-2.145-5.184q-2.145-1.762-6.333-1.762h-9.449Zm28.806,18.9a2.044,2.044,0,0,1-1.3-.383,1.473,1.473,0,0,1-.562-1.021,2.829,2.829,0,0,1,.281-1.456L348.895-7.29a3.379,3.379,0,0,1,1.1-1.456,2.445,2.445,0,0,1,1.4-.434,2.445,2.445,0,0,1,1.4.434,3.075,3.075,0,0,1,1.047,1.456l14.1,31.972a2.656,2.656,0,0,1,.332,1.481,1.44,1.44,0,0,1-.536,1.021,2.033,2.033,0,0,1-1.277.358,2.186,2.186,0,0,1-1.481-.485,3.479,3.479,0,0,1-.919-1.4l-3.779-8.734,2.043,1.073H340.366l2.094-1.073-3.728,8.734a4.522,4.522,0,0,1-.97,1.43A1.91,1.91,0,0,1,336.433,27.542ZM351.347-3.919l-8.223,19.357-1.226-.97h18.9l-1.124.97L351.449-3.919Zm25.333,31.462a2,2,0,0,1-1.558-.587,2.3,2.3,0,0,1-.536-1.609V-6.677a2.125,2.125,0,0,1,.562-1.609,2.2,2.2,0,0,1,1.583-.536h12.1q5.771,0,8.887,2.835t3.115,7.993a10.274,10.274,0,0,1-3.115,7.968q-3.116,2.86-8.887,2.86H378.773V25.346a2.369,2.369,0,0,1-.511,1.609A1.989,1.989,0,0,1,376.679,27.542Zm2.094-18.233h9.551q4.137,0,6.257-1.864a6.858,6.858,0,0,0,2.12-5.439,6.924,6.924,0,0,0-2.12-5.49q-2.12-1.864-6.257-1.864h-9.551Zm30.389,18.233a2,2,0,0,1-1.558-.587,2.3,2.3,0,0,1-.536-1.609V-6.984a2.278,2.278,0,0,1,.536-1.634,2.053,2.053,0,0,1,1.558-.562,2.053,2.053,0,0,1,1.558.562,2.278,2.278,0,0,1,.536,1.634v14.1h21.6v-14.1a2.278,2.278,0,0,1,.536-1.634,2.053,2.053,0,0,1,1.558-.562,2.053,2.053,0,0,1,1.558.562,2.278,2.278,0,0,1,.536,1.634v32.33a2.3,2.3,0,0,1-.536,1.609,2.359,2.359,0,0,1-3.116,0,2.3,2.3,0,0,1-.536-1.609V10.739h-21.6V25.346a2.369,2.369,0,0,1-.511,1.609A1.989,1.989,0,0,1,409.162,27.542Zm39.021,0a2,2,0,0,1-1.558-.587,2.3,2.3,0,0,1-.536-1.609V-6.984a2.278,2.278,0,0,1,.536-1.634,2.053,2.053,0,0,1,1.558-.562,2.053,2.053,0,0,1,1.558.562,2.278,2.278,0,0,1,.536,1.634v32.33a2.369,2.369,0,0,1-.511,1.609A1.989,1.989,0,0,1,448.183,27.542Zm38.765,6.435a2.11,2.11,0,0,1,.434,1.4,1.769,1.769,0,0,1-.511,1.073,2.025,2.025,0,0,1-2.3.409,2.475,2.475,0,0,1-1.1-1.047l-3.32-5.261a5.41,5.41,0,0,0-2.247-2.171,7.357,7.357,0,0,0-3.422-.741l3.473-1.481a7.372,7.372,0,0,1,3.8.843,9,9,0,0,1,2.784,3.09Zm-12.462-6.333a16.313,16.313,0,0,1-8.708-2.273,15.077,15.077,0,0,1-5.72-6.41,22.156,22.156,0,0,1-2.017-9.806,23.914,23.914,0,0,1,1.149-7.687A16.259,16.259,0,0,1,462.484-4.3a14.684,14.684,0,0,1,5.184-3.677,17.146,17.146,0,0,1,6.818-1.3,16.657,16.657,0,0,1,8.81,2.247,14.941,14.941,0,0,1,5.72,6.359A21.991,21.991,0,0,1,491.034,9.1a23.669,23.669,0,0,1-1.175,7.712,16.8,16.8,0,0,1-3.32,5.822,14.537,14.537,0,0,1-5.184,3.7A17.282,17.282,0,0,1,474.486,27.645Zm0-3.728a11.822,11.822,0,0,0,6.563-1.737,11.015,11.015,0,0,0,4.111-5.056,20.073,20.073,0,0,0,1.43-7.968q0-7-3.141-10.853t-8.964-3.856a11.629,11.629,0,0,0-6.461,1.737,11.032,11.032,0,0,0-4.111,5.031,19.885,19.885,0,0,0-1.43,7.942q0,6.946,3.167,10.853A10.738,10.738,0,0,0,474.486,23.916Zm38.408,3.728a18.819,18.819,0,0,1-6.257-.945,11.333,11.333,0,0,1-7.278-7.431,20.009,20.009,0,0,1-.919-6.333V-7.035a2.185,2.185,0,0,1,.536-1.609,2.11,2.11,0,0,1,1.558-.536,2.11,2.11,0,0,1,1.558.536,2.185,2.185,0,0,1,.536,1.609V12.731q0,5.618,2.6,8.4t7.661,2.784q5.056,0,7.61-2.784t2.554-8.4V-7.035a2.125,2.125,0,0,1,.562-1.609A2.2,2.2,0,0,1,525.2-9.18a2.037,2.037,0,0,1,1.507.536,2.185,2.185,0,0,1,.536,1.609v19.97A18.382,18.382,0,0,1,525.637,21a10.7,10.7,0,0,1-4.827,4.98A17.126,17.126,0,0,1,512.894,27.645Zm25.435-.46a2.059,2.059,0,0,1-2.3-2.3V-6.524a2.318,2.318,0,0,1,.587-1.711,2.318,2.318,0,0,1,1.711-.587h19a1.8,1.8,0,0,1,1.328.46,1.726,1.726,0,0,1,.46,1.277,1.8,1.8,0,0,1-.46,1.328,1.8,1.8,0,0,1-1.328.46H540.117V7.164h16.139a1.862,1.862,0,0,1,1.328.434,1.71,1.71,0,0,1,.46,1.3,1.8,1.8,0,0,1-.46,1.328,1.8,1.8,0,0,1-1.328.46H540.117V23.661h17.212a1.8,1.8,0,0,1,1.328.46,1.726,1.726,0,0,1,.46,1.277,1.608,1.608,0,0,1-1.788,1.788Z" transform="translate(198.878 346.613)" fill="gray"/>
</svg>
