<svg id="Composant_77_1" data-name="Composant 77 – 1" xmlns="http://www.w3.org/2000/svg" xmlns:xlink="http://www.w3.org/1999/xlink" width="310" height="346.069" viewBox="0 0 310 346.069">
  <defs>
    <linearGradient id="linear-gradient" x1="0.5" x2="0.5" y2="1" gradientUnits="objectBoundingBox">
      <stop offset="0" stop-color="#ffc2c2"/>
      <stop offset="1" stop-color="#fff" stop-opacity="0"/>
    </linearGradient>
  </defs>
  <path id="Tracé_421" data-name="Tracé 421" d="M0,0H310V346H0Z" transform="translate(0 0.069)" fill="none"/>
  <g id="Composant_63_13" data-name="Composant 63 – 13" transform="translate(65.982)">
    <path id="Union_11" data-name="Union 11" d="M1322-6548.062h0V-6661.19h0c0-.1,0-.21,0-.314,0-49.429,39.856-89.5,89.019-89.5s89.017,40.066,89.017,89.5c0,.1,0,.21,0,.314h0v113.128h0c-.1,49.343-39.915,89.319-89.017,89.319S1322.1-6498.719,1322-6548.062Z" transform="translate(1500.036 -6458.742) rotate(180)" opacity="0.32" fill="url(#linear-gradient)"/>
    <g id="light-bulb-svgrepo-com_1_" data-name="light-bulb-svgrepo-com (1)" transform="translate(3.293 105.68)">
      <path id="Tracé_365" data-name="Tracé 365" d="M162.358,115.81a28.606,28.606,0,1,0-45.578.046,47.359,47.359,0,0,1,9.753,28.484V155.4a8.909,8.909,0,0,0,8.9,8.9h8.277a8.909,8.909,0,0,0,8.9-8.9V144.341A46.917,46.917,0,0,1,162.358,115.81ZM119.7,113.634a24.7,24.7,0,0,1-5.083-15.323,25.08,25.08,0,0,1,24.576-24.7,24.939,24.939,0,0,1,20.246,39.987,50.633,50.633,0,0,0-10.528,30.057H130.195A51.1,51.1,0,0,0,119.7,113.634Zm10.5,40.526v-1.485l18.741,2.147v.58a5.236,5.236,0,0,1-.082.895Zm0-5.176v-1.665H148.94v3.812Zm5.231,11.651a5.234,5.234,0,0,1-4.58-2.708l15.787,1.809a5.2,5.2,0,0,1-2.929.9h-8.278Z" transform="translate(-53.826 -52.837)"/>
      <path id="Tracé_366" data-name="Tracé 366" d="M141.817,183.442a18.766,18.766,0,0,1-.2-2.93,1.834,1.834,0,1,0-3.667-.033,22.446,22.446,0,0,0,.242,3.5,1.834,1.834,0,1,0,3.627-.541Z" transform="translate(-74.225 -134.978)"/>
      <path id="Tracé_367" data-name="Tracé 367" d="M159.478,240.382a1.835,1.835,0,0,0,1.742-2.407,58.179,58.179,0,0,0-9-17.114,18.526,18.526,0,0,1-1.715-2.709,1.834,1.834,0,0,0-3.258,1.684,22.224,22.224,0,0,0,2.056,3.247,54.52,54.52,0,0,1,8.436,16.037,1.834,1.834,0,0,0,1.742,1.261Z" transform="translate(-81.094 -164.064)"/>
      <path id="Tracé_368" data-name="Tracé 368" d="M291.244,212.149a1.834,1.834,0,0,0-2.41.959,18.34,18.34,0,0,1-2.235,3.825,1.834,1.834,0,1,0,2.922,2.216,22.038,22.038,0,0,0,2.68-4.59A1.833,1.833,0,0,0,291.244,212.149Z" transform="translate(-186.251 -160.165)"/>
      <path id="Tracé_369" data-name="Tracé 369" d="M222.275,100.606a18.357,18.357,0,0,1,18.336,18.337c0,.575-.026,1.154-.078,1.722a1.834,1.834,0,0,0,1.658,1.994q.085.008.17.008A1.834,1.834,0,0,0,244.185,121c.062-.679.094-1.37.094-2.057a22.029,22.029,0,0,0-22-22,1.834,1.834,0,0,0,0,3.668Z" transform="translate(-136.549 -73.236)"/>
      <path id="Tracé_370" data-name="Tracé 370" d="M222.275,13.937a1.834,1.834,0,0,0,1.834-1.834V1.834a1.834,1.834,0,0,0-3.668,0V12.1A1.834,1.834,0,0,0,222.275,13.937Z" transform="translate(-136.549)"/>
      <path id="Tracé_371" data-name="Tracé 371" d="M135.447,35.85a1.834,1.834,0,1,0,3.176-1.834l-5.132-8.89a1.834,1.834,0,0,0-3.176,1.834Z" transform="translate(-68.274 -18.29)"/>
      <path id="Tracé_372" data-name="Tracé 372" d="M352.25,255.5l-8.89-5.132a1.834,1.834,0,0,0-1.834,3.176l8.89,5.132a1.834,1.834,0,0,0,1.834-3.176Z" transform="translate(-227.336 -188.964)"/>
      <path id="Tracé_373" data-name="Tracé 373" d="M64.826,93.791l8.89,5.132a1.834,1.834,0,1,0,1.834-3.176l-8.89-5.132a1.834,1.834,0,1,0-1.834,3.176Z" transform="translate(-18.29 -68.273)"/>
      <path id="Tracé_374" data-name="Tracé 374" d="M371.283,180.74H361.014a1.834,1.834,0,1,0,0,3.668h10.269a1.834,1.834,0,0,0,0-3.668Z" transform="translate(-241.366 -136.548)"/>
      <path id="Tracé_375" data-name="Tracé 375" d="M53.637,182.574A1.834,1.834,0,0,0,51.8,180.74H41.534a1.834,1.834,0,1,0,0,3.668H51.8A1.834,1.834,0,0,0,53.637,182.574Z" transform="translate(0 -136.548)"/>
      <path id="Tracé_376" data-name="Tracé 376" d="M342.445,99.17a1.825,1.825,0,0,0,.915-.246l8.89-5.132a1.834,1.834,0,0,0-1.834-3.176l-8.89,5.132a1.834,1.834,0,0,0,.918,3.422Z" transform="translate(-227.336 -68.274)"/>
      <path id="Tracé_377" data-name="Tracé 377" d="M73.717,250.365l-8.89,5.132a1.834,1.834,0,1,0,1.834,3.176l8.89-5.132a1.834,1.834,0,0,0-1.834-3.176Z" transform="translate(-18.29 -188.964)"/>
      <path id="Tracé_378" data-name="Tracé 378" d="M290.737,36.521a1.833,1.833,0,0,0,2.5-.671l5.132-8.89a1.834,1.834,0,0,0-3.176-1.834l-5.132,8.89A1.834,1.834,0,0,0,290.737,36.521Z" transform="translate(-188.964 -18.29)"/>
    </g>
  </g>
  <text id="efficacité" transform="translate(155 313.069)" font-size="27" font-family="HammersmithOne-Regular, Hammersmith One"><tspan x="-58.588" y="24">efficacité</tspan></text>
</svg>
