<svg id="Composant_94_1" data-name="Composant 94 – 1" xmlns="http://www.w3.org/2000/svg" xmlns:xlink="http://www.w3.org/1999/xlink" width="3212.046" height="2250.76" viewBox="0 0 3212.046 2250.76">
  <defs>
    <linearGradient id="linear-gradient" x1="4.829" y1="-0.773" x2="-0.421" y2="0.771" gradientUnits="objectBoundingBox">
      <stop offset="0.027" stop-color="#ffea00"/>
      <stop offset="0.162" stop-color="#e4c601"/>
      <stop offset="0.321" stop-color="#caa402"/>
      <stop offset="0.484" stop-color="#b58a03"/>
      <stop offset="0.649" stop-color="#a77704"/>
      <stop offset="0.819" stop-color="#9e6b04"/>
      <stop offset="1" stop-color="#9c6805"/>
    </linearGradient>
    <linearGradient id="linear-gradient-2" x1="17.484" y1="-0.232" x2="-17.759" y2="1.287" xlink:href="#linear-gradient"/>
    <linearGradient id="linear-gradient-3" x1="2.274" y1="-0.013" x2="-2.941" y2="1.482" xlink:href="#linear-gradient"/>
    <linearGradient id="linear-gradient-4" x1="28.017" y1="-10.043" x2="-3.814" y2="2.188" xlink:href="#linear-gradient"/>
    <linearGradient id="linear-gradient-5" x1="27.979" y1="-6.72" x2="-4.823" y2="1.919" xlink:href="#linear-gradient"/>
    <linearGradient id="linear-gradient-6" x1="24.442" y1="-9.343" x2="-5.258" y2="2.888" xlink:href="#linear-gradient"/>
    <linearGradient id="linear-gradient-7" x1="26.121" y1="-9.127" x2="-6.994" y2="3.328" xlink:href="#linear-gradient"/>
    <linearGradient id="linear-gradient-8" x1="25.701" y1="-8.555" x2="-8.181" y2="3.676" xlink:href="#linear-gradient"/>
    <linearGradient id="linear-gradient-9" x1="21.688" y1="-8.209" x2="-8.012" y2="4.022" xlink:href="#linear-gradient"/>
    <linearGradient id="linear-gradient-10" x1="21.396" y1="-5.209" x2="-10.048" y2="3.558" xlink:href="#linear-gradient"/>
    <linearGradient id="linear-gradient-11" x1="19.296" y1="-7.224" x2="-10.404" y2="5.007" xlink:href="#linear-gradient"/>
    <linearGradient id="linear-gradient-12" x1="17.482" y1="-6.877" x2="-11.579" y2="5.577" xlink:href="#linear-gradient"/>
    <linearGradient id="linear-gradient-13" x1="17.284" y1="-6.291" x2="-12.94" y2="5.94" xlink:href="#linear-gradient"/>
    <linearGradient id="linear-gradient-14" x1="15.73" y1="-4.406" x2="-13.255" y2="4.708" xlink:href="#linear-gradient"/>
    <linearGradient id="linear-gradient-15" x1="16.271" y1="-5.531" x2="-15.552" y2="6.7" xlink:href="#linear-gradient"/>
    <linearGradient id="linear-gradient-16" x1="15.883" y1="-3.533" x2="-16.928" y2="5.106" xlink:href="#linear-gradient"/>
    <linearGradient id="linear-gradient-17" x1="13.489" y1="-4.831" x2="-16.218" y2="7.4" xlink:href="#linear-gradient"/>
    <linearGradient id="linear-gradient-18" x1="8.902" y1="-7.33" x2="-4.101" y2="4.593" xlink:href="#linear-gradient"/>
    <linearGradient id="linear-gradient-19" x1="3.496" y1="-1.052" x2="-1.304" y2="1.487" xlink:href="#linear-gradient"/>
    <linearGradient id="linear-gradient-20" x1="3.658" y1="-0.445" x2="-1.347" y2="1.053" xlink:href="#linear-gradient"/>
    <filter id="Rectangle_621">
      <feOffset dy="3" input="SourceAlpha"/>
      <feGaussianBlur stdDeviation="3" result="blur"/>
      <feFlood flood-color="#aa7b04" result="color"/>
      <feComposite operator="out" in="SourceGraphic" in2="blur"/>
      <feComposite operator="in" in="color"/>
      <feComposite operator="in" in2="SourceGraphic"/>
    </filter>
  </defs>
  <path id="Tracé_778" data-name="Tracé 778" d="M0,0H3212.046V2250.76H0Z" fill="rgba(255,255,255,0)"/>
  <g id="Groupe_506" data-name="Groupe 506" transform="translate(1010.862 483.782)">
    <g id="Groupe_113" data-name="Groupe 113" transform="translate(0 0)">
      <g id="Groupe_112" data-name="Groupe 112">
        <path id="Tracé_124" data-name="Tracé 124" d="M1005,397.281H842.4c-10.427.716-27.539.166-40.765-10.722-16.613-13.648-18.568-36.574-19.22-49.277-4.448-86.759.818-228.481,0-307.7-.167-15.463-9.93-27.079-19.284-28.025C752.1.433,737.387,13.7,738.628,33.493v344.16a63.417,63.417,0,0,0,63.409,63.411q101.29-.134,202.592-.243c16.305,2.415,29.417-9.559,29.75-21.009C1034.724,408.118,1021.764,395.185,1005,397.281Z" transform="translate(-738.554 19.005)" fill="url(#linear-gradient)"/>
        <path id="Tracé_125" data-name="Tracé 125" d="M842.12,416.457V72.311l-.141.128V29.564C841.813,14.1,832.05,2.485,822.7,1.539,811.667.427,796.959,13.692,798.2,33.487V377.634l.14-.128v42.875c.154,15.463,9.93,27.079,19.272,28.025C828.639,449.53,843.347,436.265,842.12,416.457Z" transform="translate(-36.86 18.806)" fill="url(#linear-gradient-2)"/>
        <path id="Tracé_126" data-name="Tracé 126" d="M1106.08,420.364a35.966,35.966,0,0,0,.038-4.716V71.5l-.14.128V28.755c-.153-15.476-9.929-27.079-19.283-28.038-11.015-1.112-25.725,12.153-24.5,31.948V342.9L883.721,66.275l-.037.192L857.026,25.151C851.146,16.039,834.711,4.18,823.4,8.589c-7.782,3.041-11.731,13.636-12.74,16.358a36.526,36.526,0,0,0-2.211,14.722V383.815l.128-.128v42.875c.166,15.463,9.943,27.079,19.284,28.025,11.029,1.125,25.737-12.14,24.5-31.935V98.683l184.3,285.63.039-.192,26.045,40.37c7.13,15.016,21.992,21.009,30.836,17.073C1103,437.386,1105.978,421.82,1106.08,420.364Z" transform="translate(84.143 9.123)" fill="url(#linear-gradient-3)"/>
        <g id="Groupe_110" data-name="Groupe 110" transform="translate(205.015 544.206)">
          <path id="Tracé_127" data-name="Tracé 127" d="M787.862,93.324a12.084,12.084,0,0,1-5.918,4.575,22.454,22.454,0,0,1-8.817,1.776q-8.647,0-13.585-4.319T754.6,83.088q0-9.278,6.965-14.53,6.976-5.233,19.808-5.24a21.294,21.294,0,0,1,5.188.754q0-9.45-11.936-9.444a26.514,26.514,0,0,0-11.782,2.339l-2.7-9.687a35.184,35.184,0,0,1,15.335-3.093q12.231,0,17.929,5.572t5.687,21.1V82.3q0,10.677,4.294,13.431a6.7,6.7,0,0,1-3.451,3.323,13.7,13.7,0,0,1-4.344.626,6.948,6.948,0,0,1-4.843-1.994A10.213,10.213,0,0,1,787.862,93.324Zm-1.2-19.821a26.511,26.511,0,0,0-4.793-.652q-14.8,0-14.786,9.687,0,7.208,8.345,7.195,11.234,0,11.234-11.233Z" transform="translate(-754.597 -22.259)" fill="url(#linear-gradient-4)"/>
          <path id="Tracé_128" data-name="Tracé 128" d="M759.056,115.267l7.885-9.751a21.063,21.063,0,0,0,14.581,5.993,21.348,21.348,0,0,0,8.895-1.6q3.489-1.591,3.489-4.4,0-4.735-7.733-4.741a56.993,56.993,0,0,0-6.247.5,57.148,57.148,0,0,1-6.238.5q-12.9,0-12.894-9.239a8.028,8.028,0,0,1,2.146-5.188,13.153,13.153,0,0,1,5-3.744A18.939,18.939,0,0,1,758.8,66.77a18.238,18.238,0,0,1,6.287-14.211,22.434,22.434,0,0,1,15.489-5.623,24.451,24.451,0,0,1,12.038,2.7l4.895-5.687,8.639,7.834-5.943,4.345A19.731,19.731,0,0,1,803.3,67.217q0,9.144-5.571,14.607a19.243,19.243,0,0,1-14.057,5.47,31.331,31.331,0,0,1-3.592-.256l-2.045-.294a13.292,13.292,0,0,0-2.669,1.074c-1.56.716-2.326,1.457-2.326,2.224,0,1.329,1.15,1.994,3.438,1.994a29.753,29.753,0,0,0,5.2-.741,30.908,30.908,0,0,1,6.236-.754q18.23,0,18.237,14.632,0,8.089-7.3,12.715-7.284,4.6-17.573,4.613A36.879,36.879,0,0,1,759.056,115.267Zm12.486-48.446a10.857,10.857,0,0,0,2.62,7.616,9.112,9.112,0,0,0,7.066,2.863,8.534,8.534,0,0,0,6.837-2.786,11.459,11.459,0,0,0,2.4-7.693,9.72,9.72,0,0,0-2.583-6.85,8.627,8.627,0,0,0-6.658-2.8,9.243,9.243,0,0,0-9.687,9.648Z" transform="translate(-705.065 -25.109)" fill="url(#linear-gradient-5)"/>
          <path id="Tracé_129" data-name="Tracé 129" d="M814.124,75.753h-38.21c.231,4.255,1.7,7.578,4.4,9.942s6.326,3.54,10.887,3.54q8.531,0,12.984-4.447l4.844,9.546q-6.594,5.329-19.68,5.342-12.229,0-19.347-7.169t-7.119-20q0-12.632,7.821-20.473a25.526,25.526,0,0,1,18.747-7.846q11.637,0,18.685,6.939t7.04,17.687A35.519,35.519,0,0,1,814.124,75.753ZM776.36,66.36h26.276q-1.3-11.731-12.983-11.731Q778.954,54.629,776.36,66.36Z" transform="translate(-657.053 -22.259)" fill="url(#linear-gradient-6)"/>
          <path id="Tracé_130" data-name="Tracé 130" d="M802.166,98.679V67.766q0-6.843-2.619-9.993t-8.563-3.144a13.237,13.237,0,0,0-5.878,1.546,13.7,13.7,0,0,0-4.868,3.847V98.679H767.751V45.185h9l2.3,5q5.079-6,15.029-5.993,9.546,0,15.054,5.725t5.521,15.949V98.679Z" transform="translate(-599.652 -22.259)" fill="url(#linear-gradient-7)"/>
          <path id="Tracé_131" data-name="Tracé 131" d="M817.647,49.427l-5.341,9.342q-4.41-4.141-11.783-4.14-7.092,0-11.22,4.716T785.188,72.4q0,16.83,16.025,16.83a18.191,18.191,0,0,0,12.243-4.588l4.587,9.827a31.56,31.56,0,0,1-9.507,4.307,45.912,45.912,0,0,1-9.623.895q-12.384,0-19.553-7.22Q772.21,85.248,772.2,72.4q0-12.632,7.835-20.421t21.38-7.8A26.1,26.1,0,0,1,817.647,49.427Z" transform="translate(-547.21 -22.259)" fill="url(#linear-gradient-8)"/>
          <path id="Tracé_132" data-name="Tracé 132" d="M827.542,75.753H789.334c.23,4.255,1.7,7.578,4.4,9.942s6.325,3.54,10.89,3.54q8.547,0,12.984-4.447l4.843,9.546q-6.6,5.329-19.668,5.342-12.247,0-19.361-7.169t-7.118-20q0-12.632,7.821-20.473a25.549,25.549,0,0,1,18.748-7.846q11.637,0,18.683,6.939t7.042,17.687A34.515,34.515,0,0,1,827.542,75.753Zm-37.76-9.393h26.272q-1.3-11.731-12.983-11.731Q792.375,54.629,789.782,66.36Z" transform="translate(-498.975 -22.259)" fill="url(#linear-gradient-9)"/>
          <path id="Tracé_133" data-name="Tracé 133" d="M820.294,118.892v-3.246a12.583,12.583,0,0,1-5.239,2.965,23.12,23.12,0,0,1-7.642,1.278q-11.175,0-17.6-7.092t-6.428-19.782q0-12.671,7.374-20.651a25.5,25.5,0,0,1,29.533-5.457V45.475l12.486-3v76.42Zm0-40.7a13.172,13.172,0,0,0-8.331-3.208q-7.5,0-11.541,4.575c-2.7,3.054-4.038,7.412-4.038,13.112q0,16.677,16.077,16.677a12.144,12.144,0,0,0,4.422-1.073,7.862,7.862,0,0,0,3.412-2.172Z" transform="translate(-415.47 -42.472)" fill="url(#linear-gradient-10)"/>
          <path id="Tracé_134" data-name="Tracé 134" d="M839.2,75.753H800.992c.229,4.255,1.7,7.578,4.4,9.942s6.325,3.54,10.887,3.54q8.531,0,12.983-4.447l4.844,9.546q-6.595,5.329-19.68,5.342-12.231,0-19.349-7.169t-7.117-20q0-12.632,7.821-20.473a25.508,25.508,0,0,1,18.748-7.846q11.636,0,18.684,6.939,7.033,6.939,7.041,17.687A35.433,35.433,0,0,1,839.2,75.753ZM801.439,66.36h26.274q-1.3-11.731-12.984-11.731Q804.033,54.629,801.439,66.36Z" transform="translate(-361.651 -22.259)" fill="url(#linear-gradient-11)"/>
          <path id="Tracé_135" data-name="Tracé 135" d="M823.409,98.757h-4.5L794.732,44.266h13.686L821.211,76.93l13.724-32.664h13.241Z" transform="translate(-281.834 -21.34)" fill="url(#linear-gradient-12)"/>
          <path id="Tracé_136" data-name="Tracé 136" d="M799.188,71.8q0-12.23,7.067-19.923T824.9,44.188q12.192,0,18.927,7.386t6.747,20.23q0,12.786-6.862,20.332-6.882,7.533-18.812,7.54-12.17,0-18.952-7.617Q799.182,84.449,799.188,71.8Zm12.983,0q0,17.693,12.729,17.687a10.933,10.933,0,0,0,9.265-4.6q3.431-4.6,3.425-13.086,0-17.425-12.69-17.431a11.009,11.009,0,0,0-9.29,4.6Q812.178,63.574,812.171,71.8Z" transform="translate(-229.346 -22.259)" fill="url(#linear-gradient-13)"/>
          <path id="Tracé_137" data-name="Tracé 137" d="M833.643,106.348q-1.994,5.348-8.564,8.869a32.031,32.031,0,0,1-15.31,3.514V107.7c9.624,0,14.429-2.428,14.429-7.246q0-4.792-3.988-14.684L803.483,44.266h12.932L831,81.224l13.136-36.958h12.933Z" transform="translate(-178.754 -21.34)" fill="url(#linear-gradient-14)"/>
          <path id="Tracé_138" data-name="Tracé 138" d="M841.252,93.324a12.017,12.017,0,0,1-5.916,4.575,22.423,22.423,0,0,1-8.819,1.776q-8.626,0-13.584-4.319t-4.946-12.268q0-9.278,6.978-14.53,6.958-5.233,19.794-5.24a21.385,21.385,0,0,1,5.2.754q0-9.45-11.934-9.444a26.574,26.574,0,0,0-11.8,2.339l-2.7-9.687a35.187,35.187,0,0,1,15.335-3.093q12.231,0,17.93,5.572t5.7,21.1V82.3q0,10.677,4.293,13.431a6.7,6.7,0,0,1-3.45,3.323,13.7,13.7,0,0,1-4.344.626,6.927,6.927,0,0,1-4.843-1.994A10.256,10.256,0,0,1,841.252,93.324Zm-1.2-19.821a26.222,26.222,0,0,0-4.792-.652q-14.78,0-14.773,9.687,0,7.208,8.333,7.195,11.232,0,11.233-11.233Z" transform="translate(-125.688 -22.259)" fill="url(#linear-gradient-15)"/>
          <path id="Tracé_139" data-name="Tracé 139" d="M812.437,115.267l7.885-9.751a22.211,22.211,0,0,0,23.475,4.4q3.508-1.591,3.5-4.4,0-4.735-7.743-4.741a57.115,57.115,0,0,0-6.237.5,57.254,57.254,0,0,1-6.25.5q-12.881,0-12.881-9.239a8.027,8.027,0,0,1,2.147-5.188,13.063,13.063,0,0,1,5-3.744,18.942,18.942,0,0,1-9.137-16.83,18.237,18.237,0,0,1,6.288-14.211,22.4,22.4,0,0,1,15.475-5.623A24.382,24.382,0,0,1,846,49.633l4.895-5.687,8.639,7.834-5.943,4.345a19.633,19.633,0,0,1,3.093,11.092q0,9.144-5.559,14.607a19.263,19.263,0,0,1-14.056,5.47,31.549,31.549,0,0,1-3.606-.256l-2.043-.294a13.617,13.617,0,0,0-2.671,1.074c-1.547.716-2.326,1.457-2.326,2.224q0,1.994,3.451,1.994a29.631,29.631,0,0,0,5.188-.741,31.009,31.009,0,0,1,6.248-.754q18.23,0,18.224,14.632,0,8.089-7.283,12.715-7.3,4.6-17.584,4.613A36.905,36.905,0,0,1,812.437,115.267Zm12.485-48.446a10.861,10.861,0,0,0,2.62,7.616A9.132,9.132,0,0,0,834.61,77.3a8.562,8.562,0,0,0,6.85-2.786q2.4-2.8,2.39-7.693a9.767,9.767,0,0,0-2.569-6.85,8.637,8.637,0,0,0-6.67-2.8,9.243,9.243,0,0,0-9.687,9.648Z" transform="translate(-76.144 -25.109)" fill="url(#linear-gradient-16)"/>
          <path id="Tracé_140" data-name="Tracé 140" d="M867.5,75.753H829.3c.231,4.255,1.688,7.578,4.4,9.942s6.313,3.54,10.875,3.54q8.55,0,13-4.447l4.844,9.546q-6.6,5.329-19.681,5.342-12.229,0-19.347-7.169t-7.118-20q0-12.632,7.808-20.473a25.558,25.558,0,0,1,18.76-7.846q11.636,0,18.671,6.939,7.054,6.939,7.042,17.687A34.52,34.52,0,0,1,867.5,75.753ZM829.751,66.36h26.261q-1.283-11.731-12.984-11.731Q832.353,54.629,829.751,66.36Z" transform="translate(-28.132 -22.259)" fill="url(#linear-gradient-17)"/>
        </g>
        <g id="Groupe_111" data-name="Groupe 111" transform="translate(345.013)">
          <path id="Tracé_141" data-name="Tracé 141" d="M828.46,69.257l60.217-28.344Q852.965,28.932,817.33,16.632c-3.821-1.329-7.655-2.645-11.476-3.974l-.665-.077a42.56,42.56,0,0,0-9.112,0q-6.056,3.3-12.652,6.581c-3.6,1.789-7.155,3.463-10.619,5.061a6.044,6.044,0,0,0-3.552,6.07Z" transform="translate(-722.214 146.752)" fill="url(#linear-gradient-18)"/>
          <path id="Tracé_142" data-name="Tracé 142" d="M1090.484,26.409a16.878,16.878,0,0,0-4.051-6.07,18.742,18.742,0,0,0-7.079-4.051,83.828,83.828,0,0,0-15.183-4.051c-7.387-1.035-17.815-2.415-30.364,1.022a61.6,61.6,0,0,0-8.6,3.029Q912.609,69.922,800.022,123.57l-32.011-10.747v52l6.708,6.824a16.37,16.37,0,0,0,3.028,1.508,17.086,17.086,0,0,0,6.583,1.022c18.606-.46,28.343-2.032,28.343-2.032,1.751-.281,3.477-.562,5.534-.933,0,0,1.521-.281,3.067-.588,3.183-.626,39.987-14.006,90.07-33.392Q904.27,206.3,897.172,275.375l1.52,3.041c10.505-4.511,18.837-8.217,24.293-10.632a25.039,25.039,0,0,0,6.582-4.051,24.618,24.618,0,0,0,5.061-6.07L991.3,99.276q40.485-19.476,80.957-38.964a41.11,41.11,0,0,0,6.581-4.549c2.43-2.057,11.758-9.955,12.652-21.252A18.8,18.8,0,0,0,1090.484,26.409Z" transform="translate(-736.587 131.812)" fill="url(#linear-gradient-19)"/>
          <path id="Tracé_143" data-name="Tracé 143" d="M1059.219,230.988v89.851A114.327,114.327,0,0,1,944.9,435.163H894.8A114.328,114.328,0,0,1,780.477,320.839V133.712A114.319,114.319,0,0,1,894.8,19.388H944.9a114.286,114.286,0,0,1,114.2,110.311l.588-.166a61.69,61.69,0,0,1,16.127-2.185v-1.521A125.936,125.936,0,0,0,949.867-.113H891.492a125.935,125.935,0,0,0-125.94,125.94V327.254a125.935,125.935,0,0,0,125.94,125.94h58.375a125.936,125.936,0,0,0,125.941-125.94V222.988Z" transform="translate(-765.552 0.113)" fill="url(#linear-gradient-20)"/>
        </g>
      </g>
    </g>
  </g>
  <g data-type="innerShadowGroup">
    <rect id="Rectangle_621-2" data-name="Rectangle 621" width="235.969" height="100.048" rx="36" transform="translate(2727.596 1735.436)" fill="#cba011"/>
    <g transform="matrix(1, 0, 0, 1, 0, 0)" filter="url(#Rectangle_621)">
      <rect id="Rectangle_621-3" data-name="Rectangle 621" width="235.969" height="100.048" rx="36" transform="translate(2727.6 1735.44)" fill="#fff"/>
    </g>
    <rect id="Rectangle_621-4" data-name="Rectangle 621" width="235.969" height="100.048" rx="36" transform="translate(2727.596 1735.436)" fill="none" stroke="#707070" stroke-width="1"/>
  </g>
  <rect id="Rectangle_622" data-name="Rectangle 622" width="239.679" height="103.839" rx="37" transform="translate(2725.74 1850.24)" fill="#f2f9ff" stroke="#707070" stroke-width="1"/>
  <rect id="Rectangle_623" data-name="Rectangle 623" width="239.679" height="103.839" rx="37" transform="translate(2725.74 1968.834)" fill="#1e1111" stroke="#707070" stroke-width="1"/>
  <path id="Tracé_779" data-name="Tracé 779" d="M24.985,62.343a8.271,8.271,0,0,1-4.05,3.127A15.422,15.422,0,0,1,14.9,66.684q-5.913,0-9.3-2.957T2.222,55.336A11.751,11.751,0,0,1,6.99,45.39Q11.758,41.8,20.542,41.8a14.965,14.965,0,0,1,3.555.513q0-6.46-8.169-6.46A18.1,18.1,0,0,0,7.861,37.46L6.016,30.829A24.013,24.013,0,0,1,16.509,28.71q8.374,0,12.271,3.811t3.9,14.441v7.827q0,7.314,2.939,9.194a4.6,4.6,0,0,1-2.358,2.273,9.507,9.507,0,0,1-2.974.427,4.743,4.743,0,0,1-3.315-1.367A6.976,6.976,0,0,1,24.985,62.343Zm-.82-13.569a18.158,18.158,0,0,0-3.281-.444q-10.117,0-10.117,6.631,0,4.922,5.708,4.922,7.69,0,7.69-7.69Zm32.329,15.21-1.914,2.7H49.761V15.756l8.545-2.051v17.09a14.043,14.043,0,0,1,7.451-2.085q8.032,0,12.954,5.076a17.907,17.907,0,0,1,4.922,13.005q0,9.194-4.956,14.543T65.244,66.684A14.322,14.322,0,0,1,56.494,63.983Zm1.812-25.874V57.216A6.324,6.324,0,0,0,63.4,59.438q6.187,0,8.767-2.939t2.581-9.4q0-11.143-10.664-11.143A7.462,7.462,0,0,0,58.306,38.109ZM128.4,32.3l-3.657,6.392a11.277,11.277,0,0,0-8.066-2.837,9.662,9.662,0,0,0-7.673,3.23q-2.82,3.23-2.82,8.938,0,11.519,10.972,11.519a12.394,12.394,0,0,0,8.374-3.145l3.145,6.733a21.684,21.684,0,0,1-6.511,2.939,30.839,30.839,0,0,1-6.58.615q-8.477,0-13.381-4.939T97.3,48.021q0-8.647,5.366-13.979t14.629-5.332A17.822,17.822,0,0,1,128.4,32.3ZM167.6,66V63.778a8.667,8.667,0,0,1-3.589,2.034,15.94,15.94,0,0,1-5.229.872q-7.656,0-12.048-4.854t-4.392-13.535q0-8.682,5.042-14.133a16.482,16.482,0,0,1,12.629-5.452,16.728,16.728,0,0,1,7.588,1.709V15.756l8.545-2.051V66Zm0-27.856a9.027,9.027,0,0,0-5.708-2.187q-5.127,0-7.9,3.127t-2.769,8.972q0,11.416,11.006,11.416a8.3,8.3,0,0,0,3.025-.735A5.522,5.522,0,0,0,167.6,57.25Zm58.306,12.168H199.761a9.284,9.284,0,0,0,3.008,6.8,10.9,10.9,0,0,0,7.451,2.427q5.845,0,8.887-3.042l3.315,6.528q-4.512,3.657-13.467,3.657-8.374,0-13.245-4.9T190.84,48.09q0-8.647,5.349-14.014a17.477,17.477,0,0,1,12.834-5.366q7.964,0,12.783,4.751a16.267,16.267,0,0,1,4.819,12.1A23.871,23.871,0,0,1,225.908,50.312Zm-25.84-6.426h17.979q-.889-8.032-8.887-8.032Q201.846,35.854,200.068,43.886Zm62.339-21.67a15.049,15.049,0,0,0-4.307-.923,5.131,5.131,0,0,0-4.119,2.085A7.874,7.874,0,0,0,252.29,28.5q0,.444.034.889h7.588v7.041h-7.451V66h-8.545V36.435h-5.332V29.394h5.366a16.735,16.735,0,0,1,3.982-10.869,12.284,12.284,0,0,1,9.587-4.136,26.243,26.243,0,0,1,7.417,1.333ZM273.681,75.4l5.4-6.665a14.428,14.428,0,0,0,9.98,4.1,14.679,14.679,0,0,0,6.084-1.094q2.393-1.094,2.393-3.008,0-3.247-5.3-3.247a39.041,39.041,0,0,0-4.272.342,39.041,39.041,0,0,1-4.272.342q-8.818,0-8.818-6.323a5.5,5.5,0,0,1,1.47-3.555,9.026,9.026,0,0,1,3.418-2.563,12.968,12.968,0,0,1-6.255-11.519,12.473,12.473,0,0,1,4.307-9.724,15.333,15.333,0,0,1,10.6-3.845,16.747,16.747,0,0,1,8.237,1.846l3.35-3.9,5.913,5.366-4.067,2.974a13.464,13.464,0,0,1,2.119,7.588,13.377,13.377,0,0,1-3.811,10,13.169,13.169,0,0,1-9.622,3.743,23.43,23.43,0,0,1-2.461-.171l-1.4-.205a9.28,9.28,0,0,0-1.829.735q-1.589.735-1.589,1.521,0,1.367,2.358,1.367a20.438,20.438,0,0,0,3.555-.513,21.737,21.737,0,0,1,4.272-.513q12.476,0,12.476,10.015a9.811,9.811,0,0,1-4.99,8.7,22.019,22.019,0,0,1-12.031,3.162A25.211,25.211,0,0,1,273.681,75.4Zm8.545-33.154a7.43,7.43,0,0,0,1.794,5.212,6.227,6.227,0,0,0,4.836,1.965,5.83,5.83,0,0,0,4.683-1.914,7.828,7.828,0,0,0,1.641-5.264,6.664,6.664,0,0,0-1.76-4.683,5.914,5.914,0,0,0-4.563-1.914,6.325,6.325,0,0,0-6.631,6.6ZM343.779,66V43.441a7.217,7.217,0,0,0-2.119-5.435,7.627,7.627,0,0,0-5.537-2.051A9.042,9.042,0,0,0,331.85,37.1a7.873,7.873,0,0,0-3.076,2.615V66h-8.682V15.756l8.682-2.051V31.718q3.315-3.008,9.126-3.008,6.87,0,10.664,3.811t3.794,10.92V66Zm33.047-50.791a4.96,4.96,0,0,1,4.956,4.956,4.956,4.956,0,1,1-8.459-3.5A4.774,4.774,0,0,1,376.826,15.209ZM372.417,66V36.4h-4.683V29.394h13.33V66ZM410.18,15.209a4.96,4.96,0,0,1,4.956,4.956,4.956,4.956,0,1,1-8.459-3.5A4.774,4.774,0,0,1,410.18,15.209ZM394.526,80.355V72.733q6.836,0,9.246-1.624t2.41-5.828V36.435h-6.6V29.394h15.142V65.146q0,7.861-4.939,11.536T394.526,80.355ZM457.173,66,446.406,49.423l-4.1,4.341V66h-8.545V15.756l8.545-2.051V43.441l12.2-14.048h10.288L452.422,43.271,467.324,66Zm24.946-50.244,8.545-2.051V54.857q0,6.768,4.033,8.066-1.982,3.76-6.768,3.76-5.811,0-5.811-8.066ZM552.216,66V43.065q0-7.212-6.46-7.212a6.8,6.8,0,0,0-3.691,1.128,6.577,6.577,0,0,0-2.5,2.6V66h-8.545V41.732a5.633,5.633,0,0,0-1.675-4.29,6.582,6.582,0,0,0-4.717-1.589,6.679,6.679,0,0,0-3.5,1.2,8.177,8.177,0,0,0-2.751,2.632V66h-8.545V29.394h5.879l1.743,3.213a11.875,11.875,0,0,1,9.194-3.9q7.28,0,10.972,3.965a11.016,11.016,0,0,1,4.478-2.888,16.255,16.255,0,0,1,5.742-1.077q6.118,0,9.519,3.5t3.4,9.622V66Zm49.863,0V44.843q0-4.683-1.794-6.836t-5.862-2.153a9.079,9.079,0,0,0-4.016,1.06,9.256,9.256,0,0,0-3.333,2.632V66H578.53V29.394h6.152l1.572,3.418q3.486-4.1,10.288-4.1,6.528,0,10.305,3.914t3.777,10.92V66ZM626,47.611q0-8.374,4.836-13.638T643.6,28.71q8.34,0,12.954,5.059t4.614,13.843q0,8.75-4.7,13.911T643.6,66.684q-8.34,0-12.971-5.212T626,47.611Zm8.887,0q0,12.1,8.716,12.1a7.491,7.491,0,0,0,6.34-3.145q2.341-3.145,2.341-8.955,0-11.929-8.682-11.929a7.536,7.536,0,0,0-6.357,3.145Q634.887,41.972,634.887,47.611Zm49.521,17.466V80.355h-8.545V29.394h8.545v2.461a10.854,10.854,0,0,1,7.9-3.145q17.5,0,17.5,19.277,0,8.989-4.836,13.843t-13.21,4.854A16.629,16.629,0,0,1,684.409,65.077Zm0-26.729V57.592a8.384,8.384,0,0,0,5.435,1.88q5.913,0,8.494-2.82t2.581-8.9q0-6.494-2.563-9.143t-8.477-2.649A7.528,7.528,0,0,0,684.409,38.349Zm65.244,42.007V64.975a17.567,17.567,0,0,1-8.477,1.709q-8,0-12.51-4.871t-4.512-13.757q0-8.853,5.178-14.1a17.811,17.811,0,0,1,13.245-5.247,14.288,14.288,0,0,1,8.682,2.871l1.4-2.187H758.2V80.355Zm0-42.28a8.457,8.457,0,0,0-5.981-2.119,9.726,9.726,0,0,0-7.81,3.3,13.084,13.084,0,0,0-2.82,8.8q0,11.416,10.356,11.416a10.416,10.416,0,0,0,6.255-1.777Zm46.787-.718a8.966,8.966,0,0,0-5.024-1.5,6.818,6.818,0,0,0-5.281,2.7,9.807,9.807,0,0,0-2.307,6.6V66h-8.545V29.394h8.545v3.35a12.139,12.139,0,0,1,9.536-4.033,13.657,13.657,0,0,1,6.7,1.333Zm15.034,26.284,3.042-6.8a13.536,13.536,0,0,0,8.647,3.042q4.99,0,4.99-3.555a4.361,4.361,0,0,0-1.5-3.418,22.99,22.99,0,0,0-5.845-3.145q-9.468-3.931-9.468-11.006a8.644,8.644,0,0,1,3.623-7.4,15.3,15.3,0,0,1,9.263-2.649,23.285,23.285,0,0,1,10.732,2.563L832.494,37.9q-2.8-2.393-7.793-2.393-4.478,0-4.478,3.555a3.2,3.2,0,0,0,1.47,2.529,30.345,30.345,0,0,0,6.289,3.025,16.117,16.117,0,0,1,6.938,4.6,10.251,10.251,0,0,1,2.119,6.528,9.581,9.581,0,0,1-3.777,8.015q-3.777,2.922-10.271,2.922a23.152,23.152,0,0,1-5.862-.6A28.755,28.755,0,0,1,811.474,63.642Zm42.241-27.378h-4.238v-6.87h4.238V21.942L862.26,18.8v10.6h10.049v6.87H862.26v16.03q0,3.931,1.23,5.554t4.307,1.624a10.6,10.6,0,0,0,5.742-1.675v7.861a27.212,27.212,0,0,1-8.477,1.025q-5.469,0-8.408-3.093t-2.939-8.8Zm58.579,29.771V62.958a15.448,15.448,0,0,1-4.99,2.632,18.085,18.085,0,0,1-5.845,1.094q-12.749,0-12.749-13.535V29.394h8.545V52.5q0,7.041,6.323,7.041a10.275,10.275,0,0,0,5.4-1.5,7.642,7.642,0,0,0,3.315-3.486V29.394h8.545V66.034Zm41.489.649h-3.076l-16.543-37.29h9.365l8.75,22.354,9.4-22.354h9.058Zm66.235,0h-3.11l-10.049-22.49-10.015,22.49H993.7l-13.809-37.29h8.989l7.349,21.841,8.955-21.841h3.076l9.263,21.978,7.93-21.978h8.408ZM1070.976,66l-9.4-11.929L1053.134,66h-10.117l14.048-18.73-12.92-17.876h9.81l7.725,11.177,8.613-11.177h9.741L1065.985,47.27,1081.332,66Zm39.883,5.879q-1.367,3.657-5.862,6.067a21.843,21.843,0,0,1-10.476,2.41V72.8q9.878,0,9.878-4.956,0-3.281-2.734-10.049l-11.45-28.4h8.853l9.98,25.293,8.989-25.293h8.853Zm27.3-5.879V63.095l19.858-26.25H1138.5V29.394H1170.5V32.4l-19.141,26.147H1170.7V66Z" transform="translate(486.394 1863.055)" fill="#aa7b04" opacity="0.8"/>
  <path id="Tracé_780" data-name="Tracé 780" d="M34.351,66,30.693,55.849H13.535L10.049,66H.171L20.132,15.243h3.9L44.16,66ZM22.08,30.556,16.064,49.047H28.1ZM73.311,66H58V15.961q10.117-.479,14.185-.479,7.793,0,12.185,3.333t4.392,9.519q0,5.947-6.289,9.4Q91.8,40.98,91.8,51.132a13.028,13.028,0,0,1-5.161,10.852Q81.479,66,73.311,66ZM66.885,23.07v12q2.051.137,4.307.137,8.682,0,8.682-6.528,0-5.776-7.9-5.776Q69.893,22.9,66.885,23.07Zm0,18.936V58.549q2.7.239,4.375.239,5.947,0,8.63-2.017t2.683-6.7q0-4.272-2.5-6.221T71.362,41.9Q70.063,41.9,66.885,42.006Zm75.635-23.413-3.657,7.349q-2.974-2.974-9.57-2.974a12.351,12.351,0,0,0-10.254,5.247q-4,5.247-4,13.279t3.708,12.749a11.949,11.949,0,0,0,9.9,4.717A13.331,13.331,0,0,0,139.717,53.9l4.136,7.178q-5.435,5.776-15.928,5.776t-16.3-6.9q-5.811-6.9-5.811-18.833,0-11.108,6.443-18.577a20.8,20.8,0,0,1,16.492-7.468Q137.358,15.072,142.519,18.593ZM170.679,66H159.57V15.961q10.63-.376,13.364-.376,10.938,0,17.346,6.409t6.409,17Q196.689,66,170.679,66Zm-2.222-42.28V57.9q2.153.205,4.648.205a12.626,12.626,0,0,0,10.544-4.888q3.811-4.888,3.811-13.672,0-16.064-14.937-16.064Q171.089,23.48,168.457,23.72Zm53.52.1V35.546H238.52V43.1H221.977v15h22.7V66H213.091V15.927h31.958v7.9Zm48.359,0V35.546h17.6V43.1h-17.6V66H261.45V15.927h32.983v7.9Zm77.48-3.828-3.726,7.144a17.89,17.89,0,0,0-4.854-2.786,14.972,14.972,0,0,0-5.64-1.384q-7.383,0-11.655,5.007t-4.272,13.416q0,8,4.187,12.783t11.4,4.785a11.713,11.713,0,0,0,7.827-2.6V46.518h-6.938V38.93H349.97V61.352a22.846,22.846,0,0,1-8.186,4.05,35.619,35.619,0,0,1-9.963,1.453q-10.767,0-17.073-7.058t-6.306-18.645q0-11.587,6.87-18.833T333.8,15.072A20.877,20.877,0,0,1,347.817,19.994ZM395.185,66V43.441H375.259V66h-8.887V15.927h8.887V35.546h19.927V15.927h8.784V66Zm27.749,0V15.927h8.887V66ZM446.24,54.413h7.93q1.128,4.375,7.314,4.375,4.375,0,6.169-2.837t1.794-8.613V15.927h8.887V47.064q0,9.98-4.238,14.8t-13.6,4.819q-6.221,0-10.049-3.247A12.31,12.31,0,0,1,446.24,54.413ZM525.019,66,511.074,44.672,505.5,52.294V66h-8.887V15.927H505.5v23.96l17.021-23.96h10.117L516.953,37.8l18.7,28.2Zm23.34,0V15.927h8.887V58.1h22.627V66Zm93.921.034h-8.613l-5.2-27L618.388,66.684H615.21L605.127,39.032l-5.4,27h-8.579L601.23,15.927h4.717l10.835,33.735,10.6-33.735h4.683Zm46.855.649L664.833,35V66.034h-8.545V15.927h4.272l23.652,30.215V15.927h8.545V66.684ZM709.16,40.536q0-10.7,5.862-18.1a18.972,18.972,0,0,1,15.671-7.4q10.8,0,16.509,6.7t5.708,18.8q0,12.1-5.964,19.209t-16.936,7.109q-10.083,0-15.466-7.041T709.16,40.536Zm9.229,0q0,8.784,2.974,13.6a9.561,9.561,0,0,0,8.647,4.819q6.665,0,10.168-4.717t3.5-13.706q0-17.6-12.988-17.6a10.311,10.311,0,0,0-9.126,4.768Q718.388,32.47,718.388,40.536Zm59.81,7.041V66h-8.887V15.961q8.887-.376,10.391-.376,11.86,0,17.346,3.64t5.486,11.365q0,17.227-20.3,17.227Q780.727,47.816,778.2,47.577Zm0-23.926v16.03q2.256.239,3.555.239,6.084,0,8.887-2.034t2.8-6.614q0-7.793-12.544-7.793A20.691,20.691,0,0,0,778.2,23.651ZM866.41,76.356a33.86,33.86,0,0,1-4.58.308,26.585,26.585,0,0,1-11.707-2.581,19.864,19.864,0,0,1-8.323-7.229,24.382,24.382,0,0,1-4.067.239q-9.878,0-15.535-7.383t-5.657-19q0-11.006,5.776-18.337a18.629,18.629,0,0,1,15.415-7.332q10.835,0,16.7,6.785t5.862,18.884q0,17.944-11.758,23.96,3.726,4.1,12.373,4.1a19.624,19.624,0,0,0,5.5-.684Zm-40.64-35.649a25.4,25.4,0,0,0,3.145,13.159q3.145,5.3,8.818,5.3,6.563,0,9.946-4.854t3.384-13.6q0-17.739-13.33-17.739a9.931,9.931,0,0,0-8.921,4.751Q825.771,32.47,825.771,40.707ZM905.336,66,891.972,45.321q-2.017-.034-5.64-.239V66H877.1V15.927q.752,0,5.776-.256t8.1-.256q19.072,0,19.072,14.766a13.553,13.553,0,0,1-2.632,8.1,14.219,14.219,0,0,1-6.631,5.161L915.59,66Zm-19-42.349V37.563q2.461.205,3.76.205,5.571,0,8.152-1.572t2.581-6.118q0-3.691-2.769-5.161t-8.716-1.47A23.279,23.279,0,0,0,886.332,23.651Zm39.678,39.58,3.281-7.964a18.033,18.033,0,0,0,10.356,3.691q7.827,0,7.827-5.469a7.75,7.75,0,0,0-1.846-4.888q-1.846-2.324-7.6-5.212a36.546,36.546,0,0,1-7.759-4.751,12.693,12.693,0,0,1-3.076-4.426,14.512,14.512,0,0,1-1.077-5.674,12.413,12.413,0,0,1,4.255-9.639,15.708,15.708,0,0,1,10.92-3.828q8.682,0,12.749,3.247l-2.7,7.656a16.707,16.707,0,0,0-9.878-3.35,6.608,6.608,0,0,0-4.768,1.624A5.587,5.587,0,0,0,935,28.471q0,4.307,9.536,8.955a31.114,31.114,0,0,1,7.246,4.529,13.917,13.917,0,0,1,3.384,4.819,15.621,15.621,0,0,1,1.162,6.135,12.38,12.38,0,0,1-4.8,10.015q-4.8,3.931-12.869,3.931A22.9,22.9,0,0,1,926.01,63.231ZM993.1,23.822V66h-8.887V23.822H968.285v-7.9h41.46v7.9Zm31-7.9h8.887v33.94a8.589,8.589,0,0,0,9.229,9.092q4.819,0,7.5-2.478A8.78,8.78,0,0,0,1052.4,49.7V15.927h8.887V50.38q0,7.725-5.178,12.1t-13.826,4.375q-8.716,0-13.45-4.272T1024.1,50.346Zm74.644,50.757h-4.888l-18.73-50.757h9.775l11.587,33.838,12.236-33.838h9.57Zm73.755,0h-3.657L1157.9,35.1l-10.63,31.582h-3.657l-16.44-50.757h9.263l9.4,30.215,10.151-30.215h3.9l10.186,30.215,9.365-30.215h9.263ZM1229.6,66l-11.826-18.013L1206.84,66h-9.263l15-25.942-13.809-24.165,9.092.034,10.151,16.919,11.177-16.919h9.3l-15.859,24.268L1239.276,66Zm44.326-20.542V66h-8.887V45.458l-16.885-29.531h9.434l11.86,21.362,11.895-21.362h9.4ZM1302.191,66V63.129l20.884-39.307h-20.542v-7.9h32.642V18.8L1314.223,58.1h21.7V66Z" transform="translate(486.394 1967.402)" fill="#aa7b04" opacity="0.8"/>
  <path id="Tracé_781" data-name="Tracé 781" d="M28.589,47.411H18.6V76h-7.91V47.411H.757V40.99H28.589ZM54.1,51,43.945,78q-3.662,9.741-11.035,9.741a14.138,14.138,0,0,1-4.614-.635V80.956a6.488,6.488,0,0,0,3.345.9,4.178,4.178,0,0,0,4.15-2.808l1.318-3.1L26.953,51H35.5l4.663,15.21a19.765,19.765,0,0,1,.684,3.345h.1a23.322,23.322,0,0,1,.806-3.3L46.46,51ZM65.015,73.095h-.1V87.5H57.2V51h7.715v3.76h.1a9.069,9.069,0,0,1,8.032-4.37,9.037,9.037,0,0,1,7.507,3.333q2.649,3.333,2.649,9.07,0,6.25-3.088,10.034A10.07,10.07,0,0,1,71.9,76.61,7.784,7.784,0,0,1,65.015,73.095Zm-.22-10.254v2a6.364,6.364,0,0,0,1.367,4.224A4.45,4.45,0,0,0,69.751,70.7a4.73,4.73,0,0,0,4.089-2.039,9.843,9.843,0,0,0,1.453-5.774q0-6.592-5.127-6.592a4.815,4.815,0,0,0-3.87,1.794A7.157,7.157,0,0,0,64.795,62.841Zm35.327,13.77q-6.25,0-9.827-3.5T86.719,63.6q0-6.2,3.711-9.7t10.034-3.5q6.226,0,9.766,3.5a12.453,12.453,0,0,1,3.54,9.265q0,6.226-3.65,9.839T100.122,76.61Zm.2-20.312a5.146,5.146,0,0,0-4.248,1.88A8.29,8.29,0,0,0,94.556,63.5q0,7.2,5.811,7.2,5.542,0,5.542-7.4Q105.908,56.3,100.317,56.3Zm42.969,16.846q0,6.958-4.028,10.779t-11.67,3.821a18.5,18.5,0,0,1-8.008-1.44V79.809a15.335,15.335,0,0,0,7.788,2.246,8.388,8.388,0,0,0,6.055-2.063,7.4,7.4,0,0,0,2.148-5.6V72.411h-.1a8.616,8.616,0,0,1-7.788,4.2,9.368,9.368,0,0,1-7.593-3.369q-2.808-3.369-2.808-9.033,0-6.348,3.125-10.083a10.2,10.2,0,0,1,8.228-3.735,7.592,7.592,0,0,1,6.836,3.516h.1V51h7.715Zm-7.617-9.155V62.011a6.077,6.077,0,0,0-1.4-4.041,4.541,4.541,0,0,0-3.65-1.672,4.719,4.719,0,0,0-4.028,2,9.414,9.414,0,0,0-1.465,5.64,7.946,7.946,0,0,0,1.392,4.944,4.535,4.535,0,0,0,3.809,1.819,4.721,4.721,0,0,0,3.87-1.843A7.558,7.558,0,0,0,135.669,63.988Zm30.371-6.03a6.692,6.692,0,0,0-3.247-.757,4.678,4.678,0,0,0-3.931,1.843,8.041,8.041,0,0,0-1.416,5.017V76h-7.715V51h7.715v4.639h.1q1.831-5.078,6.592-5.078a4.968,4.968,0,0,1,1.9.293ZM190.43,76h-7.3V72.411h-.1a8.148,8.148,0,0,1-7.446,4.2,7.789,7.789,0,0,1-5.725-2.063,7.392,7.392,0,0,1-2.087-5.505q0-7.275,8.618-8.4l6.787-.9q0-4.1-4.443-4.1a15.167,15.167,0,0,0-8.5,2.661V52.489a19.114,19.114,0,0,1,4.407-1.465,23.165,23.165,0,0,1,5.09-.635q10.693,0,10.693,10.669Zm-7.251-10.156V64.159l-4.541.586q-3.76.488-3.76,3.394a2.8,2.8,0,0,0,.916,2.161,3.518,3.518,0,0,0,2.478.842,4.567,4.567,0,0,0,3.54-1.5A5.423,5.423,0,0,0,183.179,65.844Zm21.167,7.251h-.1V87.5h-7.715V51h7.715v3.76h.1a9.817,9.817,0,0,1,15.54-1.038q2.649,3.333,2.649,9.07,0,6.25-3.088,10.034a10.07,10.07,0,0,1-8.215,3.784A7.784,7.784,0,0,1,204.346,73.095Zm-.22-10.254v2a6.364,6.364,0,0,0,1.367,4.224,4.45,4.45,0,0,0,3.589,1.636,4.73,4.73,0,0,0,4.089-2.039,9.843,9.843,0,0,0,1.453-5.774q0-6.592-5.127-6.592a4.815,4.815,0,0,0-3.87,1.794A7.157,7.157,0,0,0,204.126,62.841ZM251.538,76h-7.69V61.791q0-5.493-4-5.493a4.1,4.1,0,0,0-3.32,1.538,5.932,5.932,0,0,0-1.27,3.906V76h-7.715V38.988h7.715V54.711h.1a8.766,8.766,0,0,1,7.69-4.321q8.5,0,8.5,10.254Zm10.01-28.955a4.506,4.506,0,0,1-3.2-1.16,3.736,3.736,0,0,1-1.245-2.844,3.6,3.6,0,0,1,1.245-2.832,5.222,5.222,0,0,1,6.409,0,3.62,3.62,0,0,1,1.233,2.832,3.722,3.722,0,0,1-1.233,2.881A4.583,4.583,0,0,1,261.548,47.045ZM265.356,76h-7.715V51h7.715Zm28.955-10.3H278q.391,5.444,6.86,5.444a13.394,13.394,0,0,0,7.251-1.953v5.566a19.049,19.049,0,0,1-9.009,1.855q-6.055,0-9.4-3.357t-3.345-9.363q0-6.226,3.613-9.863a12.038,12.038,0,0,1,8.887-3.638q5.469,0,8.459,3.247t2.991,8.813Zm-7.153-4.736q0-5.371-4.346-5.371a4.149,4.149,0,0,0-3.21,1.538,6.981,6.981,0,0,0-1.648,3.833Zm27.734-5.078a2.592,2.592,0,0,1-1.917-.806,2.652,2.652,0,0,1-.793-1.929,2.571,2.571,0,0,1,.793-1.9,2.632,2.632,0,0,1,1.917-.781,2.7,2.7,0,0,1,1.953.781,2.552,2.552,0,0,1,.806,1.9,2.631,2.631,0,0,1-.806,1.929A2.66,2.66,0,0,1,314.893,55.883Zm0,20.654a2.592,2.592,0,0,1-1.917-.806,2.652,2.652,0,0,1-.793-1.929,2.693,2.693,0,0,1,.793-1.941,2.573,2.573,0,0,1,1.917-.818,2.64,2.64,0,0,1,1.953.818,2.672,2.672,0,0,1,.806,1.941,2.631,2.631,0,0,1-.806,1.929A2.66,2.66,0,0,1,314.893,76.537Zm54.5-44.355h-14.15V76H349.5V32.182H335.386v-5.2h34.009ZM388.5,46.674a6.854,6.854,0,0,0-4.238-1.128,7.153,7.153,0,0,0-6,3.384q-2.41,3.384-2.41,9.229V76h-5.605V41h5.605v7.212h.137a12.221,12.221,0,0,1,3.657-5.759,8.34,8.34,0,0,1,5.5-2.068,9.151,9.151,0,0,1,3.35.479ZM422.715,59.9H398q.137,5.845,3.145,9.023a10.84,10.84,0,0,0,8.271,3.179,17.2,17.2,0,0,0,10.869-3.9v5.264q-4.614,3.35-12.2,3.35-7.417,0-11.655-4.768t-4.238-13.416q0-8.169,4.631-13.313a14.85,14.85,0,0,1,11.5-5.144q6.87,0,10.63,4.443t3.76,12.339Zm-5.742-4.751q-.034-4.854-2.341-7.554a7.977,7.977,0,0,0-6.409-2.7,9.055,9.055,0,0,0-6.733,2.837,12.874,12.874,0,0,0-3.418,7.417Zm19.961,15.791H436.8V76h-5.605V24.184H436.8V47.152h.137a13.255,13.255,0,0,1,12.1-6.973,12.828,12.828,0,0,1,10.544,4.7q3.811,4.7,3.811,12.6,0,8.784-4.272,14.065a14.225,14.225,0,0,1-11.689,5.281A11.512,11.512,0,0,1,436.934,70.941ZM436.8,56.825v4.888a10.407,10.407,0,0,0,2.82,7.366,10.06,10.06,0,0,0,15.142-.872q2.888-3.9,2.888-10.835,0-5.845-2.7-9.16a8.936,8.936,0,0,0-7.314-3.315,9.932,9.932,0,0,0-7.861,3.4A12.487,12.487,0,0,0,436.8,56.825ZM500.645,76h-5.605V70.463H494.9a11.511,11.511,0,0,1-10.8,6.357q-12.51,0-12.51-14.9V41h5.571V61.029q0,11.074,8.477,11.074a8.575,8.575,0,0,0,6.75-3.025,11.574,11.574,0,0,0,2.649-7.913V41h5.605Zm35.171-1.606a18.214,18.214,0,0,1-9.57,2.427,15.845,15.845,0,0,1-12.083-4.871q-4.6-4.871-4.6-12.629,0-8.647,4.956-13.894t13.228-5.247a18.412,18.412,0,0,1,8.135,1.709v5.742a14.252,14.252,0,0,0-8.34-2.734,11.27,11.27,0,0,0-8.8,3.845q-3.435,3.845-3.435,10.1,0,6.152,3.23,9.707A11.133,11.133,0,0,0,527.2,72.1a14.049,14.049,0,0,0,8.613-3.042ZM573.345,76h-5.605V55.834q0-10.938-8.135-10.937a8.868,8.868,0,0,0-6.9,3.162,11.782,11.782,0,0,0-2.8,8.118V76h-5.605V24.184H549.9V46.811h.137a12.73,12.73,0,0,1,11.484-6.631q11.826,0,11.826,14.253Zm38.691-16.1H587.324q.137,5.845,3.145,9.023A10.84,10.84,0,0,0,598.74,72.1a17.2,17.2,0,0,0,10.869-3.9v5.264q-4.614,3.35-12.2,3.35-7.417,0-11.655-4.768t-4.238-13.416q0-8.169,4.631-13.313a14.85,14.85,0,0,1,11.5-5.144q6.87,0,10.63,4.443t3.76,12.339Zm-5.742-4.751q-.034-4.854-2.341-7.554a7.977,7.977,0,0,0-6.409-2.7,9.055,9.055,0,0,0-6.733,2.837,12.874,12.874,0,0,0-3.418,7.417Zm30.454,20.508a10.807,10.807,0,0,1-5.229,1.094q-9.194,0-9.194-10.254V45.785h-6.016V41h6.016V32.455l5.605-1.812V41h8.818v4.785H627.93V65.507q0,3.521,1.2,5.024a4.774,4.774,0,0,0,3.965,1.5,5.893,5.893,0,0,0,3.657-1.162ZM714.131,76h-5.708V43.119q0-3.9.479-9.536h-.137a30.489,30.489,0,0,1-1.47,4.751L690.547,76h-2.8L671.03,38.607a29.293,29.293,0,0,1-1.47-5.024h-.137q.273,2.939.273,9.6V76H664.16V26.986h7.588l15.039,34.18a43.764,43.764,0,0,1,2.256,5.879h.205q1.47-4.033,2.358-6.016l15.347-34.043h7.178Zm10.6-1.982V67.25a13.143,13.143,0,0,0,2.786,1.846,22.568,22.568,0,0,0,3.418,1.384,27.209,27.209,0,0,0,3.606.872,20.1,20.1,0,0,0,3.35.308q5.3,0,7.913-1.965a7.372,7.372,0,0,0,1.743-9.109,9.818,9.818,0,0,0-2.41-2.683,23.911,23.911,0,0,0-3.64-2.324q-2.1-1.111-4.529-2.341-2.563-1.3-4.785-2.632a20.735,20.735,0,0,1-3.862-2.939,12.262,12.262,0,0,1-2.581-3.64,11.267,11.267,0,0,1-.94-4.768,11.212,11.212,0,0,1,1.47-5.828,12.606,12.606,0,0,1,3.862-4.084,17.51,17.51,0,0,1,5.452-2.393,24.962,24.962,0,0,1,6.238-.786q7.246,0,10.562,1.743v6.46q-4.341-3.008-11.143-3.008a18.325,18.325,0,0,0-3.76.393,10.62,10.62,0,0,0-3.35,1.282,7.42,7.42,0,0,0-2.393,2.29,6.078,6.078,0,0,0-.923,3.418,7.037,7.037,0,0,0,.7,3.247,7.959,7.959,0,0,0,2.068,2.5,20.594,20.594,0,0,0,3.333,2.188q1.965,1.06,4.529,2.324,2.632,1.3,4.99,2.734a22.809,22.809,0,0,1,4.136,3.179,14.126,14.126,0,0,1,2.82,3.862,10.857,10.857,0,0,1,1.042,4.854,12.308,12.308,0,0,1-1.418,6.135,11.641,11.641,0,0,1-3.828,4.084,16.719,16.719,0,0,1-5.554,2.273,30.418,30.418,0,0,1-6.631.7,27.021,27.021,0,0,1-2.871-.188q-1.709-.188-3.486-.547a28.449,28.449,0,0,1-3.367-.889A10.476,10.476,0,0,1,724.727,74.018Z" transform="translate(471.638 1698.041)" fill="#707070" opacity="0.8"/>
</svg>
