<svg xmlns="http://www.w3.org/2000/svg" xmlns:xlink="http://www.w3.org/1999/xlink" width="31.996" height="31.996" viewBox="0 0 31.996 31.996"><defs><linearGradient id="a" x1="0.459" y1="1.012" x2="0.541" y2="-0.009" gradientUnits="objectBoundingBox"><stop offset="0" stop-color="#e50e42"/><stop offset="1" stop-color="#141a68"/></linearGradient><linearGradient id="b" x1="0.42" y1="1.496" x2="0.579" y2="-0.492" xlink:href="#a"/><linearGradient id="c" x1="-0.031" y1="7.15" x2="0.649" y2="-1.36" xlink:href="#a"/></defs><path d="M832,748.25c-4.345,0-4.89.018-6.6.1a11.742,11.742,0,0,0-3.883.744,8.181,8.181,0,0,0-4.679,4.679,11.74,11.74,0,0,0-.744,3.883c-.078,1.706-.1,2.251-.1,6.6s.018,4.89.1,6.6a11.74,11.74,0,0,0,.744,3.883,8.181,8.181,0,0,0,4.679,4.679,11.741,11.741,0,0,0,3.883.744c1.706.078,2.251.1,6.6.1s4.89-.018,6.6-.1a11.74,11.74,0,0,0,3.883-.744,8.18,8.18,0,0,0,4.679-4.679,11.738,11.738,0,0,0,.744-3.883c.078-1.706.1-2.251.1-6.6s-.018-4.89-.1-6.6a11.741,11.741,0,0,0-.744-3.883,8.18,8.18,0,0,0-4.679-4.679,11.741,11.741,0,0,0-3.883-.744C836.889,748.268,836.344,748.25,832,748.25Zm0,2.883c4.272,0,4.778.016,6.465.093a8.854,8.854,0,0,1,2.971.551,5.3,5.3,0,0,1,3.036,3.036,8.853,8.853,0,0,1,.551,2.971c.077,1.687.093,2.193.093,6.465s-.016,4.778-.093,6.465a8.853,8.853,0,0,1-.551,2.971,5.3,5.3,0,0,1-3.036,3.036,8.849,8.849,0,0,1-2.971.551c-1.687.077-2.193.093-6.465.093s-4.778-.016-6.465-.093a8.85,8.85,0,0,1-2.971-.551,5.3,5.3,0,0,1-3.036-3.036,8.851,8.851,0,0,1-.551-2.971c-.077-1.687-.093-2.193-.093-6.465s.016-4.778.093-6.465a8.852,8.852,0,0,1,.551-2.971,5.3,5.3,0,0,1,3.036-3.036,8.856,8.856,0,0,1,2.971-.551C827.221,751.149,827.727,751.133,832,751.133Z" transform="translate(-816.001 -748.25)" fill="url(#a)"/><path d="M894.269,831.851a5.333,5.333,0,1,1,5.333-5.333A5.333,5.333,0,0,1,894.269,831.851Zm0-13.548a8.215,8.215,0,1,0,8.215,8.215A8.215,8.215,0,0,0,894.269,818.3Z" transform="translate(-878.271 -810.52)" fill="url(#b)"/><path d="M1023.427,800.022a1.92,1.92,0,1,1-1.92-1.92A1.92,1.92,0,0,1,1023.427,800.022Z" transform="translate(-996.969 -792.563)" fill="url(#c)"/></svg>