<svg xmlns="http://www.w3.org/2000/svg" width="31.923" height="32.377" viewBox="0 0 31.923 32.377"><path d="M304.223,760.906H280.28a4.021,4.021,0,0,0-3.99,4.047v24.283a4.021,4.021,0,0,0,3.99,4.047h23.942a4.021,4.021,0,0,0,3.99-4.047V764.953A4.021,4.021,0,0,0,304.223,760.906Zm-18.779,27.611H280.1V772.2h5.347Zm-2.674-18.541h-.035a3.051,3.051,0,1,1,.035,0Zm21.951,18.541h-5.346v-8.728c0-2.192-.775-3.688-2.708-3.688a2.93,2.93,0,0,0-2.743,1.983,3.758,3.758,0,0,0-.176,1.324v9.11H288.4s.071-14.783,0-16.313h5.346v2.31a5.3,5.3,0,0,1,4.818-2.693c3.518,0,6.155,2.331,6.155,7.342Z" transform="translate(-276.29 -760.906)" fill="#141a68" fill-rule="evenodd"/></svg>