<svg xmlns="http://www.w3.org/2000/svg" xmlns:xlink="http://www.w3.org/1999/xlink" width="709.01" height="544.109" viewBox="0 0 709.01 544.109"><defs><filter id="a" x="0" y="0" width="621.431" height="455.121" filterUnits="userSpaceOnUse"><feOffset dy="15" input="SourceAlpha"/><feGaussianBlur stdDeviation="25" result="b"/><feFlood flood-opacity="0.161"/><feComposite operator="in" in2="b"/><feComposite in="SourceGraphic"/></filter><filter id="c" x="402.927" y="250.227" width="306.083" height="293.883" filterUnits="userSpaceOnUse"><feOffset dy="15" input="SourceAlpha"/><feGaussianBlur stdDeviation="25" result="d"/><feFlood flood-opacity="0.161"/><feComposite operator="in" in2="d"/><feComposite in="SourceGraphic"/></filter><linearGradient id="e" x1="4.829" y1="-0.773" x2="-0.421" y2="0.771" gradientUnits="objectBoundingBox"><stop offset="0.027" stop-color="#ffea00"/><stop offset="0.162" stop-color="#e4c601"/><stop offset="0.321" stop-color="#caa402"/><stop offset="0.484" stop-color="#b58a03"/><stop offset="0.649" stop-color="#a77704"/><stop offset="0.819" stop-color="#9e6b04"/><stop offset="1" stop-color="#9c6805"/></linearGradient><linearGradient id="f" x1="17.484" y1="-0.232" x2="-17.759" y2="1.287" xlink:href="#e"/><linearGradient id="g" x1="2.274" y1="-0.013" x2="-2.941" y2="1.482" xlink:href="#e"/><linearGradient id="h" x1="28.017" y1="-10.043" x2="-3.814" y2="2.188" xlink:href="#e"/><linearGradient id="i" x1="27.979" y1="-6.72" x2="-4.823" y2="1.919" xlink:href="#e"/><linearGradient id="j" x1="24.442" y1="-9.343" x2="-5.258" y2="2.888" xlink:href="#e"/><linearGradient id="k" x1="26.121" y1="-9.127" x2="-6.994" y2="3.328" xlink:href="#e"/><linearGradient id="l" x1="25.701" y1="-8.555" x2="-8.181" y2="3.676" xlink:href="#e"/><linearGradient id="m" x1="21.688" y1="-8.209" x2="-8.012" y2="4.022" xlink:href="#e"/><linearGradient id="n" x1="21.396" y1="-5.209" x2="-10.048" y2="3.558" xlink:href="#e"/><linearGradient id="o" x1="19.296" y1="-7.224" x2="-10.404" y2="5.007" xlink:href="#e"/><linearGradient id="p" x1="17.482" y1="-6.877" x2="-11.579" y2="5.577" xlink:href="#e"/><linearGradient id="q" x1="17.284" y1="-6.291" x2="-12.94" y2="5.94" xlink:href="#e"/><linearGradient id="r" x1="15.73" y1="-4.406" x2="-13.255" y2="4.708" xlink:href="#e"/><linearGradient id="s" x1="16.271" y1="-5.531" x2="-15.552" y2="6.7" xlink:href="#e"/><linearGradient id="t" x1="15.883" y1="-3.533" x2="-16.928" y2="5.106" xlink:href="#e"/><linearGradient id="u" x1="13.489" y1="-4.831" x2="-16.218" y2="7.4" xlink:href="#e"/><linearGradient id="v" x1="8.902" y1="-7.33" x2="-4.101" y2="4.593" xlink:href="#e"/><linearGradient id="w" x1="3.496" y1="-1.052" x2="-1.304" y2="1.487" xlink:href="#e"/><linearGradient id="x" x1="3.658" y1="-0.445" x2="-1.347" y2="1.053" xlink:href="#e"/><linearGradient id="ab" x1="0.995" y1="0.509" x2="0.005" y2="0.491" gradientUnits="objectBoundingBox"><stop offset="0" stop-color="#ffe400"/><stop offset="0.162" stop-color="#e7b900"/><stop offset="0.321" stop-color="#c49100"/><stop offset="0.484" stop-color="#aa7600"/><stop offset="0.649" stop-color="#996307"/><stop offset="0.819" stop-color="#8f570a"/><stop offset="1" stop-color="#8d550b"/></linearGradient></defs><g transform="translate(75 60)"><g transform="translate(0 0)"><g transform="matrix(1, 0, 0, 1, -75, -60)" filter="url(#a)"><rect width="471.431" height="305.121" rx="31" transform="translate(75 60)" fill="#fff"/></g></g><g transform="translate(402.927 250.227)"><g transform="matrix(1, 0, 0, 1, -477.93, -310.23)" filter="url(#c)"><rect width="156.083" height="143.883" rx="31" transform="translate(477.93 310.23)" fill="#fff"/></g></g><g transform="translate(85.2 81.288)"><g transform="translate(0 0)"><path d="M808.712,105.706H765.9c-2.746.188-7.251.044-10.734-2.823-4.374-3.594-4.889-9.63-5.061-12.975-1.171-22.844.215-60.161,0-81.02-.044-4.072-2.615-7.13-5.078-7.379-2.9-.3-6.777,3.2-6.45,8.409v90.621a16.7,16.7,0,0,0,16.7,16.7q26.671-.035,53.344-.064c4.293.636,7.746-2.517,7.833-5.532C816.539,108.56,813.126,105.154,808.712,105.706Z" transform="translate(-738.554 3.906)" fill="url(#e)"/><path d="M809.709,110.743V20.126l-.037.034V8.87c-.044-4.072-2.615-7.13-5.078-7.379-2.9-.293-6.777,3.2-6.45,8.412V100.52l.037-.034v11.289c.041,4.072,2.615,7.13,5.074,7.379C806.159,119.451,810.032,115.959,809.709,110.743Z" transform="translate(-597.676 3.866)" fill="url(#f)"/><path d="M886.78,111.166a9.511,9.511,0,0,0,.01-1.242V19.307l-.037.034V8.052c-.04-4.075-2.615-7.13-5.077-7.383-2.9-.293-6.774,3.2-6.451,8.412V90.768L828.23,17.931l-.01.05L821.2,7.1c-1.548-2.4-5.876-5.522-8.854-4.361-2.049.8-3.089,3.59-3.355,4.307a9.614,9.614,0,0,0-.582,3.876v90.617l.033-.034V112.8c.044,4.072,2.618,7.13,5.078,7.379,2.9.3,6.777-3.2,6.451-8.409v-85.3L868.5,101.674l.01-.05,6.858,10.63c1.878,3.954,5.791,5.532,8.12,4.5C885.969,115.648,886.753,111.55,886.78,111.166Z" transform="translate(-573.382 1.922)" fill="url(#g)"/><g transform="translate(53.982 143.295)"><path d="M763.356,57.126a3.182,3.182,0,0,1-1.558,1.2,5.914,5.914,0,0,1-2.322.468,5.257,5.257,0,0,1-3.577-1.137,4.056,4.056,0,0,1-1.3-3.23,4.527,4.527,0,0,1,1.834-3.826,8.552,8.552,0,0,1,5.216-1.38,5.606,5.606,0,0,1,1.366.2q0-2.488-3.143-2.487a6.983,6.983,0,0,0-3.1.616L756.057,45a9.265,9.265,0,0,1,4.038-.814,6.542,6.542,0,0,1,4.721,1.467q1.5,1.464,1.5,5.555v3.012q0,2.811,1.131,3.537a1.764,1.764,0,0,1-.909.875,3.61,3.61,0,0,1-1.144.165,1.829,1.829,0,0,1-1.275-.525A2.688,2.688,0,0,1,763.356,57.126Zm-.316-5.219a6.979,6.979,0,0,0-1.262-.172q-3.9,0-3.893,2.551,0,1.9,2.2,1.894a2.614,2.614,0,0,0,2.958-2.958Z" transform="translate(-754.597 -38.414)" fill="url(#h)"/><path d="M758.869,62.726l2.076-2.567a5.545,5.545,0,0,0,3.839,1.578,5.621,5.621,0,0,0,2.342-.421,1.293,1.293,0,0,0,.919-1.158q0-1.247-2.036-1.248a15.02,15.02,0,0,0-1.645.131,15.043,15.043,0,0,1-1.642.131q-3.4,0-3.4-2.433a2.113,2.113,0,0,1,.565-1.366,3.464,3.464,0,0,1,1.316-.986,4.987,4.987,0,0,1-2.406-4.432,4.8,4.8,0,0,1,1.655-3.742,5.907,5.907,0,0,1,4.078-1.481,6.438,6.438,0,0,1,3.17.71l1.289-1.5,2.275,2.063L769.7,47.153a5.2,5.2,0,0,1,.814,2.921,5.138,5.138,0,0,1-1.467,3.846,5.067,5.067,0,0,1-3.7,1.44,8.247,8.247,0,0,1-.946-.067l-.538-.077a3.5,3.5,0,0,0-.7.283c-.411.188-.612.384-.612.585,0,.35.3.525.905.525a7.831,7.831,0,0,0,1.37-.2,8.137,8.137,0,0,1,1.642-.2q4.8,0,4.8,3.853a3.774,3.774,0,0,1-1.921,3.348,8.5,8.5,0,0,1-4.627,1.215A9.71,9.71,0,0,1,758.869,62.726Zm3.288-12.756a2.859,2.859,0,0,0,.69,2.005,2.4,2.4,0,0,0,1.861.754,2.247,2.247,0,0,0,1.8-.734,3.018,3.018,0,0,0,.633-2.026,2.559,2.559,0,0,0-.68-1.8,2.272,2.272,0,0,0-1.753-.737,2.433,2.433,0,0,0-2.551,2.541Z" transform="translate(-744.652 -38.986)" fill="url(#i)"/><path d="M776.371,52.5H766.31a3.575,3.575,0,0,0,1.157,2.618,4.194,4.194,0,0,0,2.867.932,4.634,4.634,0,0,0,3.419-1.171l1.275,2.514a8.116,8.116,0,0,1-5.182,1.407,6.855,6.855,0,0,1-5.094-1.888,7.15,7.15,0,0,1-1.874-5.266,7.3,7.3,0,0,1,2.059-5.391,7.216,7.216,0,0,1,9.856-.239,6.268,6.268,0,0,1,1.854,4.657A9.357,9.357,0,0,1,776.371,52.5Zm-9.943-2.473h6.918a3.09,3.09,0,0,0-3.419-3.089Q767.111,46.937,766.428,50.026Z" transform="translate(-735.013 -38.414)" fill="url(#j)"/><path d="M776.813,58.536V50.4a4.079,4.079,0,0,0-.69-2.631,2.78,2.78,0,0,0-2.255-.828,3.486,3.486,0,0,0-1.548.407,3.609,3.609,0,0,0-1.282,1.013V58.536h-3.288V44.45h2.369l.606,1.316a4.893,4.893,0,0,1,3.957-1.578,5.242,5.242,0,0,1,3.964,1.507,5.793,5.793,0,0,1,1.454,4.2v8.641Z" transform="translate(-723.489 -38.414)" fill="url(#k)"/><path d="M784.168,45.568l-1.406,2.46a4.346,4.346,0,0,0-3.1-1.09,3.723,3.723,0,0,0-2.954,1.242,5.053,5.053,0,0,0-1.083,3.439q0,4.432,4.22,4.432a4.789,4.789,0,0,0,3.224-1.208l1.208,2.588a8.309,8.309,0,0,1-2.5,1.134,12.091,12.091,0,0,1-2.534.236,6.925,6.925,0,0,1-5.148-1.9,7.171,7.171,0,0,1-1.884-5.28,7.242,7.242,0,0,1,2.063-5.377,7.629,7.629,0,0,1,5.63-2.053A6.87,6.87,0,0,1,784.168,45.568Z" transform="translate(-712.96 -38.414)" fill="url(#l)"/><path d="M789.791,52.5H779.73a3.575,3.575,0,0,0,1.158,2.618,4.194,4.194,0,0,0,2.867.932,4.63,4.63,0,0,0,3.419-1.171l1.275,2.514A8.111,8.111,0,0,1,783.27,58.8a6.858,6.858,0,0,1-5.1-1.888,7.15,7.15,0,0,1-1.874-5.266,7.3,7.3,0,0,1,2.06-5.391,7.216,7.216,0,0,1,9.856-.239,6.267,6.267,0,0,1,1.854,4.657A9.082,9.082,0,0,1,789.791,52.5Zm-9.943-2.473h6.918a3.088,3.088,0,0,0-3.419-3.089Q780.531,46.937,779.848,50.026Z" transform="translate(-703.276 -38.414)" fill="url(#m)"/><path d="M793.1,62.594V61.74a3.315,3.315,0,0,1-1.38.781,6.087,6.087,0,0,1-2.012.336,5.932,5.932,0,0,1-4.634-1.868,7.483,7.483,0,0,1-1.693-5.209,7.7,7.7,0,0,1,1.942-5.438,6.715,6.715,0,0,1,7.776-1.437V43.263l3.288-.791V62.594Zm0-10.717a3.469,3.469,0,0,0-2.194-.845,3.849,3.849,0,0,0-3.039,1.2,5.048,5.048,0,0,0-1.063,3.452q0,4.391,4.233,4.391a3.2,3.2,0,0,0,1.164-.283,2.072,2.072,0,0,0,.9-.572Z" transform="translate(-686.511 -42.472)" fill="url(#n)"/><path d="M801.449,52.5H791.388a3.575,3.575,0,0,0,1.157,2.618,4.194,4.194,0,0,0,2.867.932,4.634,4.634,0,0,0,3.419-1.171l1.275,2.514a8.115,8.115,0,0,1-5.182,1.407,6.855,6.855,0,0,1-5.095-1.888,7.151,7.151,0,0,1-1.874-5.266,7.3,7.3,0,0,1,2.059-5.391,7.216,7.216,0,0,1,9.856-.239,6.267,6.267,0,0,1,1.854,4.657A9.342,9.342,0,0,1,801.449,52.5Zm-9.943-2.473h6.918a3.09,3.09,0,0,0-3.419-3.089Q792.189,46.937,791.506,50.026Z" transform="translate(-675.706 -38.414)" fill="url(#o)"/><path d="M802.283,58.614H801.1l-6.367-14.348h3.6l3.368,8.6,3.614-8.6H808.8Z" transform="translate(-659.681 -38.229)" fill="url(#p)"/><path d="M799.188,51.46a7.443,7.443,0,0,1,1.861-5.246,7.155,7.155,0,0,1,9.893-.081,7.61,7.61,0,0,1,1.776,5.327,7.655,7.655,0,0,1-1.807,5.354,7.191,7.191,0,0,1-9.943-.02A7.734,7.734,0,0,1,799.188,51.46Zm3.419,0q0,4.659,3.351,4.657a2.878,2.878,0,0,0,2.44-1.211,5.677,5.677,0,0,0,.9-3.446q0-4.588-3.341-4.59a2.9,2.9,0,0,0-2.446,1.211A5.546,5.546,0,0,0,802.607,51.46Z" transform="translate(-649.143 -38.414)" fill="url(#q)"/><path d="M811.424,60.613a4.526,4.526,0,0,1-2.255,2.335,8.434,8.434,0,0,1-4.031.925v-2.9c2.534,0,3.8-.639,3.8-1.908a11.754,11.754,0,0,0-1.05-3.866l-4.4-10.929h3.405L810.728,54l3.459-9.731h3.405Z" transform="translate(-638.986 -38.229)" fill="url(#r)"/><path d="M816.747,57.126a3.166,3.166,0,0,1-1.558,1.2,5.9,5.9,0,0,1-2.322.468,5.262,5.262,0,0,1-3.577-1.137,4.056,4.056,0,0,1-1.3-3.23,4.521,4.521,0,0,1,1.838-3.826,8.54,8.54,0,0,1,5.212-1.38,5.63,5.63,0,0,1,1.369.2q0-2.488-3.142-2.487a7,7,0,0,0-3.106.616L809.448,45a9.265,9.265,0,0,1,4.038-.814,6.538,6.538,0,0,1,4.721,1.467q1.5,1.464,1.5,5.555v3.012q0,2.811,1.131,3.537a1.763,1.763,0,0,1-.909.875,3.608,3.608,0,0,1-1.144.165,1.825,1.825,0,0,1-1.275-.525A2.7,2.7,0,0,1,816.747,57.126Zm-.316-5.219a6.91,6.91,0,0,0-1.262-.172q-3.892,0-3.89,2.551,0,1.9,2.194,1.894a2.614,2.614,0,0,0,2.958-2.958Z" transform="translate(-628.332 -38.414)" fill="url(#s)"/><path d="M812.258,62.726l2.076-2.567a5.848,5.848,0,0,0,6.181,1.158q.924-.419.922-1.158,0-1.247-2.039-1.248a15.033,15.033,0,0,0-1.642.131,15.081,15.081,0,0,1-1.646.131q-3.392,0-3.392-2.433a2.114,2.114,0,0,1,.565-1.366,3.439,3.439,0,0,1,1.316-.986,4.987,4.987,0,0,1-2.406-4.432,4.8,4.8,0,0,1,1.655-3.742,5.9,5.9,0,0,1,4.075-1.481,6.421,6.421,0,0,1,3.17.71l1.289-1.5,2.275,2.063-1.565,1.144a5.725,5.725,0,0,1-.649,6.767,5.072,5.072,0,0,1-3.7,1.44,8.3,8.3,0,0,1-.949-.067l-.538-.077a3.585,3.585,0,0,0-.7.283c-.407.188-.612.384-.612.585q0,.525.909.525a7.8,7.8,0,0,0,1.366-.2,8.168,8.168,0,0,1,1.645-.2q4.8,0,4.8,3.853a3.778,3.778,0,0,1-1.918,3.348,8.507,8.507,0,0,1-4.63,1.215A9.716,9.716,0,0,1,812.258,62.726Zm3.287-12.756a2.859,2.859,0,0,0,.69,2.005,2.4,2.4,0,0,0,1.861.754,2.255,2.255,0,0,0,1.8-.734,3.017,3.017,0,0,0,.629-2.026,2.571,2.571,0,0,0-.677-1.8,2.273,2.273,0,0,0-1.756-.737,2.433,2.433,0,0,0-2.551,2.541Z" transform="translate(-618.385 -38.986)" fill="url(#t)"/><path d="M829.76,52.5H819.7a3.563,3.563,0,0,0,1.158,2.618,4.184,4.184,0,0,0,2.863.932,4.637,4.637,0,0,0,3.422-1.171l1.275,2.514a8.116,8.116,0,0,1-5.182,1.407,6.854,6.854,0,0,1-5.094-1.888,7.135,7.135,0,0,1-1.874-5.266,7.3,7.3,0,0,1,2.056-5.391,7.216,7.216,0,0,1,9.856-.239,6.254,6.254,0,0,1,1.854,4.657A9.083,9.083,0,0,1,829.76,52.5Zm-9.94-2.473h6.915a3.087,3.087,0,0,0-3.419-3.089Q820.5,46.937,819.82,50.026Z" transform="translate(-608.745 -38.414)" fill="url(#u)"/></g><g transform="translate(90.845)"><path d="M784.827,27.324l15.856-7.463q-9.4-3.155-18.786-6.393c-1.006-.35-2.016-.7-3.022-1.046l-.175-.02a11.206,11.206,0,0,0-2.4,0q-1.595.868-3.331,1.733c-.949.471-1.884.912-2.8,1.333a1.592,1.592,0,0,0-.936,1.6Z" transform="translate(-756.851 29.554)" fill="url(#v)"/><path d="M852.921,15.107a4.441,4.441,0,0,0-1.067-1.6,4.933,4.933,0,0,0-1.864-1.067,22.065,22.065,0,0,0-4-1.067,18.751,18.751,0,0,0-8,.269,16.227,16.227,0,0,0-2.264.8Q806.085,26.565,776.44,40.69l-8.429-2.83V51.552l1.767,1.8a4.315,4.315,0,0,0,.8.4,4.5,4.5,0,0,0,1.733.269,61.807,61.807,0,0,0,7.463-.535c.461-.074.916-.148,1.457-.246,0,0,.4-.074.807-.155.838-.165,10.529-3.688,23.716-8.793q-1.863,18.186-3.732,36.375l.4.8c2.766-1.188,4.96-2.164,6.4-2.8A6.593,6.593,0,0,0,810.55,77.6a6.481,6.481,0,0,0,1.332-1.6l14.923-41.7q10.66-5.128,21.317-10.26a10.819,10.819,0,0,0,1.733-1.2c.639-.542,3.1-2.621,3.331-5.6A4.949,4.949,0,0,0,852.921,15.107Z" transform="translate(-759.737 26.554)" fill="url(#w)"/><path d="M842.878,60.738V84.4a30.1,30.1,0,0,1-30.1,30.1h-13.19a30.1,30.1,0,0,1-30.1-30.1V35.124a30.1,30.1,0,0,1,30.1-30.1h13.19a30.093,30.093,0,0,1,30.069,29.046l.155-.044a16.243,16.243,0,0,1,4.247-.575v-.4A33.16,33.16,0,0,0,814.084-.113H798.713a33.16,33.16,0,0,0-33.161,33.161V86.086a33.16,33.16,0,0,0,33.161,33.161h15.371a33.16,33.16,0,0,0,33.162-33.161V58.632Z" transform="translate(-765.552 0.113)" fill="url(#x)"/></g></g></g><g transform="translate(442.919 268.094)"><path d="M783.362,25.916l14.366-6.762q-8.52-2.858-17.022-5.793c-.912-.317-1.826-.631-2.738-.948l-.159-.018a10.154,10.154,0,0,0-2.174,0q-1.445.787-3.018,1.57c-.86.427-1.707.826-2.534,1.207a1.441,1.441,0,0,0-.848,1.448Z" transform="translate(-758.014 25.619)" fill="url(#v)"/><path d="M844.946,14.728a4.025,4.025,0,0,0-.967-1.448,4.469,4.469,0,0,0-1.689-.966,20,20,0,0,0-3.622-.966,16.989,16.989,0,0,0-7.244.244,14.708,14.708,0,0,0-2.052.723q-26.863,12.8-53.724,25.6l-7.637-2.564V47.75l1.6,1.628a3.908,3.908,0,0,0,.723.36,4.076,4.076,0,0,0,1.57.244,56,56,0,0,0,6.762-.485c.418-.067.829-.134,1.32-.223,0,0,.363-.067.732-.14.759-.149,9.54-3.342,21.488-7.967q-1.688,16.477-3.381,32.958l.363.726c2.506-1.076,4.494-1.96,5.8-2.537a5.975,5.975,0,0,0,1.57-.966,5.875,5.875,0,0,0,1.207-1.448l13.521-37.787q9.659-4.646,19.315-9.3a9.811,9.811,0,0,0,1.57-1.085c.579-.491,2.805-2.375,3.018-5.07A4.486,4.486,0,0,0,844.946,14.728Z" transform="translate(-760.514 23.02)" fill="url(#w)"/><path d="M835.614,55.022V76.459a27.276,27.276,0,0,1-27.275,27.275H796.388a27.276,27.276,0,0,1-27.275-27.275V31.814A27.274,27.274,0,0,1,796.388,4.54h11.951a27.266,27.266,0,0,1,27.244,26.318l.14-.04a14.717,14.717,0,0,1,3.848-.521v-.363A30.045,30.045,0,0,0,809.525-.113H795.6a30.045,30.045,0,0,0-30.046,30.046V77.989A30.045,30.045,0,0,0,795.6,108.035h13.927a30.045,30.045,0,0,0,30.047-30.046V53.114Z" transform="translate(-765.552 0.113)" fill="url(#x)"/></g><g transform="translate(0 345.91)"><rect width="34" height="35" rx="7" fill="#063"/><text transform="translate(0 42)" fill="#141a68" font-size="20" font-family="HammersmithOne-Regular, Hammersmith One"><tspan x="0" y="43">Police:</tspan><tspan y="43" font-size="46" font-family="TrebuchetMS-Bold, Trebuchet MS" font-weight="700"> </tspan><tspan y="43" font-size="25" font-family="TrebuchetMS-Bold, Trebuchet MS" font-weight="700">Trebuchet MS Bold</tspan></text></g><rect width="35.43" height="36.205" rx="7" transform="translate(0 345.91)" fill="url(#ab)"/></g></svg>