<svg id="Composant_77_1" data-name="Composant 77 – 1" xmlns="http://www.w3.org/2000/svg" xmlns:xlink="http://www.w3.org/1999/xlink" width="310" height="346.069" viewBox="0 0 310 346.069">
  <defs>
    <linearGradient id="linear-gradient" x1="0.5" x2="0.5" y2="1" gradientUnits="objectBoundingBox">
      <stop offset="0" stop-color="#ffc2c2"/>
      <stop offset="1" stop-color="#fff" stop-opacity="0"/>
    </linearGradient>
  </defs>
  <path id="Tracé_421" data-name="Tracé 421" d="M0,0H310V346H0Z" transform="translate(0 0.069)" fill="none"/>
  <g id="Composant_63_13" data-name="Composant 63 – 13" transform="translate(65.982)">
    <path id="Union_11" data-name="Union 11" d="M1322-6548.062h0V-6661.19h0c0-.1,0-.21,0-.314,0-49.429,39.856-89.5,89.019-89.5s89.017,40.066,89.017,89.5c0,.1,0,.21,0,.314h0v113.128h0c-.1,49.343-39.915,89.319-89.017,89.319S1322.1-6498.719,1322-6548.062Z" transform="translate(1500.036 -6458.742) rotate(180)" opacity="0.32" fill="url(#linear-gradient)"/>
  </g>
  <text id="singularité" transform="translate(155 312.069)" font-size="27" font-family="HammersmithOne-Regular, Hammersmith One"><tspan x="-66.426" y="24">singularité</tspan></text>
  <g id="star-svgrepo-com" transform="translate(112.146 120.546)">
    <g id="Groupe_386" data-name="Groupe 386" transform="translate(0 11.572)">
      <g id="Groupe_385" data-name="Groupe 385" transform="translate(0 0)">
        <path id="Tracé_382" data-name="Tracé 382" d="M85.544,42.588a3.266,3.266,0,0,0-2.653-2.237l-18.37-2.669,1.166-6.8a4,4,0,0,0-5.8-4.216L53.9,29.814,45.8,13.4h0a3.287,3.287,0,0,0-5.895,0l-8.1,16.41-5.985-3.147a4,4,0,0,0-5.8,4.216l1.166,6.8L2.816,40.352A3.287,3.287,0,0,0,.995,45.957l13.134,12.8L9.495,63.278A4,4,0,0,0,11.711,70.1l6.624.962-3.172,18.5a3.282,3.282,0,0,0,4.769,3.465l16.491-8.67,2.846,5.766a4,4,0,0,0,7.172,0l2.846-5.766,16.491,8.67a3.286,3.286,0,0,0,4.768-3.464l-3.173-18.5L74,70.1a4,4,0,0,0,2.216-6.821l-4.635-4.518,13.134-12.8A3.267,3.267,0,0,0,85.544,42.588Zm-24.07-12.9a.584.584,0,0,1,.848.616l-1.181,6.885-3.878-.564-1.851-3.75Zm-37.856.045a.56.56,0,0,1,.616-.045L30.3,32.877l-1.851,3.75-3.878.564-1.181-6.885A.562.562,0,0,1,23.618,29.734ZM12.2,66.72a.585.585,0,0,1-.324-1l4.7-4.579,2.965,2.89L18.912,67.7ZM43.378,88.609a.584.584,0,0,1-1.048,0l-2.885-5.844,3.409-1.792,3.409,1.792ZM73.83,65.723a.585.585,0,0,1-.324,1L66.8,67.7l-.628-3.661,2.965-2.89Zm-4.7-9.347L66.686,58.76l-2.95,2.876a3.287,3.287,0,0,0-.945,2.909l.625,3.641.577,3.366,3.144,18.328L50.8,81.291,47.774,79.7l-3.391-1.783a3.286,3.286,0,0,0-3.059,0L37.934,79.7,34.91,81.291,18.572,89.881l3.144-18.328.577-3.366.625-3.641a3.287,3.287,0,0,0-.945-2.909l-2.95-2.876-2.446-2.384L3.565,43.693l18.2-2.645,3.38-.491L29,40a3.286,3.286,0,0,0,2.475-1.8l1.842-3.732L34.832,31.4l8.022-16.256L50.876,31.4l1.512,3.063L54.23,38.2A3.286,3.286,0,0,0,56.7,40l3.859.561,3.38.491,18.2,2.645Z" transform="translate(0 -11.572)"/>
      </g>
    </g>
    <g id="Groupe_388" data-name="Groupe 388" transform="translate(14.999 41.646)">
      <g id="Groupe_387" data-name="Groupe 387" transform="translate(0 0)">
        <path id="Tracé_383" data-name="Tracé 383" d="M103.439,192.692a1.707,1.707,0,0,0-1.935-1.444l-10.44,1.517a1.707,1.707,0,0,0,.244,3.4,1.753,1.753,0,0,0,.248-.018l10.44-1.517A1.707,1.707,0,0,0,103.439,192.692Z" transform="translate(-89.602 -191.23)"/>
      </g>
    </g>
    <g id="Groupe_390" data-name="Groupe 390" transform="translate(8.398 43.862)">
      <g id="Groupe_389" data-name="Groupe 389">
        <path id="Tracé_384" data-name="Tracé 384" d="M55.358,205.929a1.707,1.707,0,0,0-1.935-1.444l-1.793.26a1.707,1.707,0,0,0,.244,3.4,1.753,1.753,0,0,0,.248-.018l1.793-.26A1.707,1.707,0,0,0,55.358,205.929Z" transform="translate(-50.168 -204.467)"/>
      </g>
    </g>
  </g>
</svg>
